<?xml version="1.0" encoding="UTF-8"?>
<svg id="Calque_2" data-name="Calque 2" xmlns="http://www.w3.org/2000/svg" viewBox="0 0 219.08 238.71">
  <defs>
    <style>
      .cls-1 {
        fill: #403028;
      }

      .cls-2 {
        fill: #fbfaf9;
      }

      .cls-3 {
        fill: tan;
      }

      .cls-4 {
        fill: #a3775f;
      }

      .cls-5 {
        fill: #805e4c;
      }

      .cls-6 {
        fill: #231c18;
      }

      .cls-7 {
        fill: #392721;
      }

      .cls-8 {
        fill: #5f473a;
      }

      .cls-9 {
        fill: #f3f3f3;
      }
    </style>
  </defs>
  <g id="Calque_1-2" data-name="Calque 1">
    <g>
      <path class="cls-4" d="M193.37,185.63c-.15,7.43-.97,13.03-1.26,14.95-.43,2.73-.83,5.34-1.41,8.02-20.1,16.84-45.4,27.69-73.15,29.75-3.21.24-6.44.36-9.71.36-25.89,0-50-7.63-70.21-20.75-6.2-4.02-12.03-8.57-17.43-13.58-.42-3.39-.47-6.54-.53-10.92-.06-4.2,0-12.21,1.42-23.88.87-7.14,1.91-12.53,3.96-23.02.59-3.05,1.76-8.94,4.94-23.32.14-.64.29-1.31.44-1.99,4.03-18.22,3.9-16.76,6.48-28.64.12-.54.23-1.07.34-1.58,3.78-17.47,3.94-20.12,6.31-27.69,2.98-9.53,6.39-16.98,8.78-21.75,1.5-2.43,3.62-5.49,6.48-8.75.38-.43.75-.83,1.1-1.22,2.23-2.41,4.07-4.05,4.76-4.64.41-.36,6.11-5.25,13.55-8.76h0c.43-.2.86-.41,1.31-.6,13.65-5.95,27.35-4.2,38.04-2.84,6.1.77,12.34,1.61,19.63,4.55.88.34,1.77.72,2.68,1.14,3.61,1.66,9.24,4.29,14.82,9.44.01.02.03.03.04.04.88.81,1.75,1.68,2.62,2.62,5.03,5.47,7.27,10.54,10.44,17.72,1.06,2.39,3.07,7.19,8.23,25.95,2.19,7.96,3.35,12.19,4.75,18.03.01.02.01.05.02.07,2.14,9.02,3.84,19.17,6.67,37.04h0c.41,2.56.84,5.25,1.29,8.14.64,4.02,2.87,18.3,4.12,32.82.24,2.84.59,7.38.47,13.29Z"/>
      <path class="cls-8" d="M216.96,95.31c-3.7,13.28-17.91,28.62-29.35,36-.04.03-.08.05-.12.07h0c-2.61,1.69-8.29,5.04-11.11,4.83-5.5-.4-12.16-11.8-12.91-16.92-1.73-11.79,4.93-12.7,12-19.29,1.91-1.78,3.61-3.73,5.35-5.66.04-.04.07-.08.11-.12,2.94-3.27,5.23-5.92,7.54-9.78,2.86-4.77,6.48-15.84,11.47-17.72,1.24-.47,7.18-1.02,8.65-.98,1.86.04,6.38,3.02,7.59,4.45,4.76,5.65,2.63,18.5.78,25.12Z"/>
      <path class="cls-1" d="M37.53,91.18c-2.38,10.67-5.07,21.6-7.29,32.22-.08-.05-.17-.1-.25-.16-11.59-7.08-22.87-17.82-27.26-30.98-2.52-7.53-4.94-22.3.76-28.76.18-.21,3.59-2.79,3.82-2.89,4.74-2.19,11.27-.71,14.58,3.36,2.87,3.52,4.94,12.41,7.64,17.28,1.74,3.13,4.66,8.01,7.72,9.78.1.05.19.1.28.15Z"/>
      <path class="cls-1" d="M78.24,18.21h0c-.11.08-.43.87-.98,1.11-6.01,2.76-11.66,6.36-16.01,11.36,2.91-1.37,11.24-5.69,12.84-.68,1.74,5.47-2.19,3.55-6.3,4.8-2.54.77-4.62,2.92-7.38,2.92-1.07-.22-1-3.99-.99-4.92,0-.29.39-.63.51-1.18.07-.33.05-.72-.19-1.22-.82-1.72-4.82-5.68-6.28-8.36-6.33-11.67.37-22.11,13.38-20.21,5.84,4.01,9.15,9.73,11.41,16.38Z"/>
      <path class="cls-8" d="M156.63,31.59c-.45-.47-1.09-1.03-1.87-1.64-.01-.01-.03-.02-.04-.04-4.56-3.57-13.8-9.04-17.54-10.48.01-.03.03-.07.04-.1,1.53-3.42,2.67-6.96,4.51-10.25,3.01-5.36,8.19-10.2,14.93-8.85,2.45.49,7.43,4.44,8.61,6.58,4.69,8.5-3.11,18.66-8.64,24.78Z"/>
      <path class="cls-3" d="M127.74,224.32c-2.49,5.68-5.99,10.35-10.19,14.03-3.21.24-6.44.36-9.71.36-25.89,0-50-7.63-70.21-20.75-10.53-28.06,2.3-68.49,34.39-72.51,43.96-5.52,72.73,40.01,55.72,78.87Z"/>
      <path class="cls-5" d="M76.42,65.03c12.5-4.21,23.95,1.58,24.51,1.92,1.47.88,3.65,2.37,5.9,4.77,2.05,3.48,4.04,7.74,5.43,12.77,1.29,4.66,4.27,17.33-1.19,30.73-5.48,13.44-16.45,15.96-29.79,15.48-.19-3.07-.98-6.41-1.21-9.43-.18-2.41.88-12.49-2.74-12.49-1.13-.05-1.28.69-1.49,1.58-.82,3.51-.36,9.58-.02,13.34.2,2.22.78,4.78,1.21,7-21.32-2.37-24.97-25.9-20.05-43.17.7-2.45,1.89-3.99,3.04-6.08,3.31-6,7.84-11.84,13.98-15.2.27-.15,2.29-1.17,2.43-1.22ZM73.22,82.83c-4.27-4.25-11.07,1.88-7.98,7.69,4.05,7.62,13.5-2.19,7.98-7.69ZM87.81,82.16c-6.14.91-6.52,11.77.45,11.49,7.33-.3,5.22-12.32-.45-11.49Z"/>
      <path class="cls-2" d="M106.8,71.72c-3.39-29,36.57-35.99,42.39-8.67,2.42,11.39-4.7,24.49-12.01,27.21-2.05.76-6.47,1.61-10.75,1.54-1.49-.02-2.62-.04-3.72-.43-4.43-1.59-7.31-3.45-10.44-6.88-1.5-4.11-4.83-7.35-5.47-12.77ZM130.31,54.92c-21.72-.47-17.06,34.88,2.75,28.8,15.24-4.68,11.9-28.48-2.75-28.8Z"/>
      <path class="cls-2" d="M76.42,65.03c-.14.05-2.17,1.07-2.43,1.22.48-4.33-2.71-11.98-7.6-12.2-10.46-.47-15.1,19.62-8.63,25.41.84.75,2.64.21,2.26,1.99-1.15,2.09-2.34,3.63-3.04,6.08-17.54-5.22-10.01-39.28,5.31-41.81,10.06-1.66,15.46,10.87,14.14,19.31Z"/>
      <path class="cls-8" d="M122.75,28.69c3.63-2.93,16.72,2.82,15.57,7.33-1.22,4.8-6.72.06-9.3-.81-4.17-1.42-9.19.08-6.27-6.51Z"/>
      <path class="cls-7" d="M81.28,130.7c-1.38-.05-2.93.15-4.25,0-.42-2.22-1.01-4.78-1.21-7-.34-3.75-.8-9.82.02-13.34.21-.89.36-1.63,1.49-1.58,3.62,0,2.55,10.08,2.74,12.49.23,3.02,1.02,6.36,1.21,9.43Z"/>
      <path class="cls-6" d="M73.99,66.24c-2.14,1.23-5.16,3.3-8.05,6.61-2.49,2.86-4.02,5.67-4.96,7.76-.23-.01-.61-.04-1.06-.15,0,0-1.25-.19-2.17-1.01-6.47-5.79-1.83-25.88,8.63-25.41,4.9.22,8.08,7.87,7.6,12.2ZM65.94,60.26c-3.31.62-3.01,5.76-.64,6.48,6.23,1.87,5.56-7.39.64-6.48Z"/>
      <path class="cls-7" d="M73.22,82.83c5.51,5.5-3.93,15.3-7.98,7.69-3.09-5.8,3.71-11.94,7.98-7.69Z"/>
      <path class="cls-7" d="M87.81,82.16c5.67-.84,7.78,11.18.45,11.49-6.97.29-6.59-10.58-.45-11.49Z"/>
      <path class="cls-6" d="M130.31,54.92c14.65.32,17.99,24.12,2.75,28.8-19.81,6.08-24.47-29.27-2.75-28.8ZM130.65,66.71c2.04,2.02,7.53.63,5.62-3.5-2.49-5.38-8.89.25-5.62,3.5Z"/>
      <path class="cls-9" d="M65.94,60.26c4.93-.91,5.59,8.34-.64,6.48-2.37-.71-2.68-5.86.64-6.48Z"/>
      <path class="cls-9" d="M130.65,66.71c-3.27-3.25,3.13-8.88,5.62-3.5,1.91,4.13-3.58,5.52-5.62,3.5Z"/>
    </g>
  </g>
</svg>