<?xml version="1.0" encoding="UTF-8"?>
<svg id="Calque_2" data-name="Calque 2" xmlns="http://www.w3.org/2000/svg" viewBox="0 0 266.95 297.43">
  <defs>
    <style>
      .cls-1 {
        fill: #403028;
      }

      .cls-2 {
        fill: #b1dbf1;
      }

      .cls-3 {
        fill: tan;
      }

      .cls-4 {
        fill: #be6248;
      }

      .cls-5 {
        fill: #a3775f;
      }

      .cls-6 {
        fill: #805e4c;
      }

      .cls-7 {
        fill: #efdec3;
      }

      .cls-8 {
        fill: #613f2d;
      }

      .cls-9 {
        fill: #71bbe3;
      }

      .cls-10 {
        fill: #351e14;
      }

      .cls-11 {
        fill: #5f473a;
      }
    </style>
  </defs>
  <g id="Calque_1-2" data-name="Calque 1">
    <g>
      <ellipse class="cls-10" cx="197.59" cy="72.47" rx="10.48" ry="8.15" transform="translate(-5.14 128.98) rotate(-35.72)"/>
      <path class="cls-1" d="M54.59,225.46c.1,2.31.54,6.04,2.45,10,4.65,9.63,13.57,11.46,12.93,15-.73,4.03-12.6,3.15-24.82,11.11-2.69,1.75-4.52,3.18-5.82,4.97-2.39,3.28-2.71,7.57-5.79,10.67-8.94,9.01-28.84-9.13-32.63-17.61-1.25-2.8-1.45-5.37.76-7.87,5.12-5.78,13.1,1.59,14.16.59.16-1.69,1.69-15.09,13.88-23,11.26-7.31,23.01-4.35,24.86-3.85Z"/>
      <path class="cls-5" d="M203.14,102.86c2.07,17.93,4.14,35.86,6.21,53.79,1.81,11.83,3.63,23.88,4.14,35.86v17.93c-.67,13.34-3.59,26.36-11.16,37.46-6.94,10.17-18.68,19.28-30.91,21.85-6.73,1.18-14.45,2.12-23,2.45-7.2.28-13.83.08-19.76-.38-28.82-8.96-44.02-12.52-52.63-13.95-.53-.09-1.39-.23-2.54-.53-14.54-3.86-21.85-20.35-24.14-25.52-11.74-26.48-2.32-57.53,5.52-77.24,4.52-11.35,9.82-23.62,15.17-34.48,7.5-15.23,19.53-37.76,29.06-51.27,1.29-1.82,3.37-3.32,4.04-5.28,1.51-2.61,13.18-22.14,36.01-25.2,21.68-2.91,37.1,11.24,42.67,16.35,19.62,18,21.12,42.45,21.32,48.17ZM103.01,145.13c-47.85,3.01-67.72,94.07-6.22,105.12,76.13,13.68,70.03-109.13,6.22-105.12Z"/>
      <path class="cls-1" d="M30.04,60.79c2.27,2.07,5.17,4.38,8.75,6.54,2.41,1.46,4.71,2.59,6.79,3.49,2.21-2.41,4.26-4.14,5.76-5.28,4.76-3.64,6.61-3.49,7.24-3.4,1.87.27,3.06,1.52,3.24,1.7,2.62,2.8,1.4,7.7.65,10.74-.95,3.83-2.5,6.46-2.57,6.74-3.42,13.96,1.35,28.09,10.16,38.78-5.35,10.86-10.66,23.13-15.17,34.48-28.13-20.81-38.91-61.6-24.83-93.79Z"/>
      <path class="cls-7" d="M89.96,37.34c.35,1.07.87,3.12.55,5.68-.32,2.55-1.32,4.41-1.93,5.36-4.19,4.55-7.42,8.34-9.58,10.94-3.88,4.66-5.88,7.37-9.71,10.8-2.8,2.51-5.32,4.28-6.99,5.37.11-.34.27-.91.41-1.61.25-1.3,1.22-6.34-1.7-9.37-.44-.46-1.27-1.31-2.37-1.56-3.2-.71-7.75,3.98-11.15,11.58-1.06-.76-3.62-.59-4.27-.87-2.24-.96-11.14-9.68-13.26-12.18-2.67-3.15-4.73-6.23-4.11-10.65.17-1.21,1.4-2.55,1.25-3.39-.17-.93-3.46-3.36-4.34-4.63-7.62-11.06,2.99-28.12,15.65-27.37,3.33.2,8.86,3.97,9.83,3.98,2.62.02,3.97-6.88,8.94-6.97,8.78-.16,28.63,16.79,32.77,24.89ZM35.29,22.33c-8.8,1.6-12.09,14.08-4.2,19.09,1.45.25,11.57-13.95,13.22-16.16-2.26-2.82-5.55-3.56-9.02-2.93Z"/>
      <path class="cls-6" d="M107.52,56.53c5.51-6.79,11.29-11.35,15.47-14.2,1.23-.88,3.07-2,5.48-2.84,0,0,4.62-1.53,9.47-1.07,9.06.86,16.79,9.68,19.68,18.24,1.5,4.44,1.56,8.42,1.38,11.03-.54,5.17-1.27,10.62-2.24,16.3-1.29,7.61-2.85,14.7-4.53,21.23-3.24,13.04-13.18,22.93-25.33,25.19-12.36,2.3-22.01-4.21-24.06-5.66-3.33-4.17-9.23-12.81-10.76-25.05-2.63-21.08,10.58-37.19,15.43-43.16ZM129.86,42.27c-2.57.51-4.92,3.47-3.62,6.11,2.44,4.93,10.32-1.2,6.28-5.59-.8-.71-1.67-.72-2.66-.52ZM142.26,47.12c-3.42,1.01-2.27,8.38,1.82,8.01,5.22-.47,3.82-9.68-1.82-8.01Z"/>
      <path class="cls-10" d="M83.15,33.9c.57.71.67,1.94.75,2.01.22.22,4.28,0,6.14.75,6.17,2.44,14.86,12.08,17.93,17.93,2.27,4.32,3.99,8.97,4.83,13.79,22.67-19.08,29.66,5.4,29.65,24.83,0,6.86-.39,12.1-2.76,18.62l-7.36-7.47c-6.23-3.58-12.19-4.71-19.04-2.03-7.64,2.99-11.71,11.03-3.91,16.69,3,2.18,10.03,4.49,13.52,5,1.73.26,5.56-1.12,7.81-.48-8.49,5.37-19.01,3.79-26.91-2.4-15.25-11.95-5.13-33.33,3.46-46.26-.65-4.07-2.48-7.65-4.13-11.35-2.57-5.73-5.54-11.95-11.34-15.23-1.29-.73-2.81-.46-3.14-.64-1.59-.84-5.31-3.13-7.6-4.47-5.3-3.09-8.08-5.92-12.4-10.01,4.64-.17,9.97,1.9,14.48.69Z"/>
      <path class="cls-2" d="M234.75,54.34c-3.47,2.39-14.77,9.49-28.85,7.14-4.15-.69-7.62-2.05-10.34-3.45-1.45-1.22-3.76-3.49-5.48-7.02-1.46-2.98-1.93-5.69-2.1-7.46,0-1.86.26-5.73,2.53-9.9,2.34-4.3,5.59-6.65,7.17-7.65L244.02.64c3-1.1,6.94-.84,9.41,1.24,2.36,1.99,8.13,13.58,9.82,17.07,3.93,8.1,4.03,10.14,3.41,12.52-1.02,3.95-4.34,6.2-7.3,8.15-5.86,3.85-14.09,8.98-24.62,14.72Z"/>
      <path class="cls-9" d="M187.97,43.55c1.56.72,1.51,2.04,4.13,7.08,2.65,5.11,3.64,5.57,3.45,7.4-.28,2.77-3.05,5.48-6.73,6.1-4.2.7-4.8-5.25-6.02-5.34-4.95,2.77-8.76,5.49-11.39,7.52-5.68,4.39-19.56,15.08-27.15,32.82-3.55,8.29-4.71,15.74-6.82,15.57-1.48-.12-2.48-3.94-2.81-6.51-1.48-11.79,8.27-22.54,24.36-40.5,1.14-1.27,2.98-3.19,5.52-5.52,4.24-3.9,8.86-7.86,14.44-9.71-1.44-1.4-1.85-3.37-1.1-4.8.56-1.06,1.59-1.51,1.98-1.65,2.03-1.53,5.52-3.67,8.13-2.46Z"/>
      <path class="cls-9" d="M168.93,27.47c.28-.02,1.89-.12,3.05.92,1.95,1.74,1.1,5.33.99,5.78-1.49,5.96-10.89,9.86-12.92,7.86-2.35-2.31,3.3-14.22,8.89-14.56Z"/>
      <path class="cls-10" d="M110.55,38.2c-2.28,1.28-6.81-2.44-8.9-5.79-.69-1.1-2.13-3.48-1.44-6,.13-.48.47-1.64,1.57-2.5,0,0,1.24-.96,2.9-.9,3.08.11,5.09,3.78,5.53,4.6,1.99,3.64,2.58,9.34.34,10.6Z"/>
      <path class="cls-3" d="M103.01,145.13c63.81-4.02,69.91,118.79-6.22,105.12-61.5-11.05-41.62-102.11,6.22-105.12Z"/>
      <path class="cls-11" d="M135.74,238.13c3.59-.77,6.28-1.32,9.86-.95,1.71.17,7.36.82,12.67,5.06,7.82,6.26,8.69,15.39,8.9,17.59.4,4.18.78,8.19-1.69,10.88-3.48,3.78-8.44.44-17.92,2.7-2.17.52-10.18,2.67-16.53,9.05-6.47,6.5-6.07,12.22-11.62,14.32-3.87,1.47-7.98.18-10.81-1.12-4.22-3-9.91-7.86-14.79-15.23-2.35-3.55-4.03-6.97-5.26-9.96-.9-3.87.45-7.79,3.29-9.74,3.78-2.6,9.84-1.48,13,3.26,1.55-4.08,6.22-14.78,16.79-20.84,5.57-3.19,11.78-4.52,14.12-5.02Z"/>
      <path class="cls-4" d="M122.92,124.02c-4.6-.63-9.01-1.73-13.52-5-7.81-5.66-3.73-13.7,3.91-16.69,6.85-2.69,12.81-1.55,19.04,2.03l7.36,7.47c-1.08,3.69-2.85,6.16-3.98,7.51-1.29,1.53-2.92,3.48-5.69,4.49-.61.22-2.48.84-7.11.2Z"/>
      <path class="cls-9" d="M212.11,57.34c-10.13-1.22-19.79-3.97-16.77-16.42,2.07-8.54,11.59-12.51,16.42-14.61,18.93-8.23,39.88-2.84,48.74-.02.72,1.6,1.44,3.2,2.16,4.8-4.19,2.81-8.73,5.67-13.62,8.49-4.29,2.48-8.46,4.7-12.47,6.71-.8.7-1.6,1.39-2.39,2.09-.1-.11-.94-.02-1.31-.42-3.4-3.56-2.57-3.27-7.12-5.16-.58-.24-.54-1.18-1.02-1.3-4.86-1.14-10.54,1.57-12.09,6.37-.77,2.37-.82,6.98-.53,9.47Z"/>
      <path class="cls-8" d="M68.66,33.21c-2.08-1.59-4.96-4.08-7.77-7.66-.92-1.17-6.1-7.77-4.61-9.55.7-.83,2.69-.41,4.01-.14,1.95.41,3.31,1.28,3.83,1.57,5.25,3.01,15.17,11.6,19.03,16.46-4.51,1.21-9.84-.86-14.48-.69Z"/>
      <path class="cls-10" d="M129.86,42.27c.99-.2,1.86-.19,2.66.52,4.04,4.39-3.83,10.51-6.28,5.59-1.31-2.63,1.05-5.59,3.62-6.11Z"/>
      <path class="cls-10" d="M142.26,47.12c5.64-1.66,7.03,7.54,1.82,8.01-4.09.37-5.23-7-1.82-8.01Z"/>
      <path class="cls-11" d="M210.83,47.4c1.31-4.71,7.82-8.38,13.8-7.78,4.76.48,7.78,3.5,8.49,4.25,2.7,2.85,3.47,6.2,3.82,7.96,7.23,36.8,2.02,56.84,2.02,56.84-2.33,10.93-6.05,19.26-8.96,24.74-4.38,8.24-9.34,17.57-19.96,23.92-4.57,2.74-8.83,4.11-11.72,4.84-1.65.11-4.3.06-7.22-1.06-8.28-3.2-10.86-12.14-11.32-13.94-1.84-7.09.52-13.01,1.13-14.43,2.77-6.45,6.59-6.7,12.71-14.18,4.69-5.73,6.88-10.99,9.06-16.23,2.27-5.45,5.32-12.8,5.66-22.83.25-7.28-1.02-13.45-2.43-18.02,1.82-.41,4.29-1.29,5.45-3.39,1.88-3.42-1.7-6.46-.52-10.68Z"/>
      <path class="cls-8" d="M94.18,58.73c.81,1.15-7.48,9.66-10.01,5.52-2.93-4.8,6.47-7.8,10.01-5.52Z"/>
      <path class="cls-10" d="M182.2,67.45c.32,4.51,1.08,8.93,2.37,13.26,1.1,3.69,6.89,2.12,5.79-1.6s-1.87-7.68-2.15-11.66-6.27-3.86-6,0h0Z"/>
      <path class="cls-10" d="M175.77,75.23c-10.48-.99-16.07,10.98-9.51,18.87,6.18,7.45,19.14,4.48,19.2-5.91.02-3.86-5.98-3.87-6,0-.03,5.29-6.61,5.13-9.03,1.52-3-4.47.42-8.94,5.34-8.48,3.84.36,3.82-5.64,0-6h0Z"/>
    </g>
  </g>
</svg>