<?xml version="1.0" encoding="UTF-8"?>
<svg id="Calque_2" data-name="Calque 2" xmlns="http://www.w3.org/2000/svg" viewBox="0 0 215.27 258.55">
  <defs>
    <style>
      .cls-1 {
        fill: #403028;
      }

      .cls-2 {
        fill: #dbc7bc;
      }

      .cls-3 {
        fill: tan;
      }

      .cls-4 {
        fill: #fff;
        stroke: #5f473a;
        stroke-width: .5px;
      }

      .cls-4, .cls-5 {
        stroke-miterlimit: 10;
      }

      .cls-6 {
        fill: #a3775f;
      }

      .cls-7 {
        fill: #805e4c;
      }

      .cls-5 {
        fill: #e59142;
        stroke: #231c18;
        stroke-width: 2px;
      }

      .cls-8 {
        fill: #231c18;
      }

      .cls-9 {
        fill: #81504d;
      }

      .cls-10 {
        fill: #5f473a;
      }
    </style>
  </defs>
  <g id="Calque_1-2" data-name="Calque 1">
    <g>
      <path class="cls-9" d="M30.76,222.49c3.09,1.28,8.27,3.3,14.69,5.15,8.56,2.47,15.28,3.48,21.03,4.32,9.83,1.44,18.15,1.95,21.97,2.06,25.05.73,54.21-9.88,60.58-12.27.62.64,1.55,1.69,2.44,3.14.58.93,1.54,2.67,1.94,4.98,0,0,1.06,6.13-4.01,13.4-10.72,15.41-97.25,22.93-119.26,4.19-2.23-1.9-7.2-6.13-8.59-13.1-1.3-6.53,1.19-12.18,2.6-14.82,1.72.82,3.96,1.84,6.61,2.94Z"/>
      <path class="cls-3" d="M126.88,146.45c-4.75,1.58-5.54,7.12-5.93,11.86-.91,10.9,3.34,24.19,12.65,27.68,1.26.47,4.43,1.66,8.08.82,3.6-.82,4.14-2.81,9.84-5.27,2.87-1.24,5.31-1.86,6.68-2.2,1.48-.37,4-.98,7.38-1.2,2.03-.13,3.76-.09,5.07,0,.17-2.75.2-5.89-.07-9.34-.21-2.71-.57-5.2-.99-7.43-3.83-.66-7.86-1.46-12.04-2.44-4.33-1.01-8.43-2.11-12.27-3.26-6.37-3.43-11-12.19-18.38-9.24Z"/>
      <path class="cls-6" d="M146.5,155.81c6.46.5,14.11,4.59,22.37,4.9,4.89.18,8.82-.74,13.45-2.13,7.88-11.3,9.05-31.2-6.21-36.66-2.26-.81-5.08-.94-7.24-1.61-3.51-1.09-12.55-3.28-15.12-5.06-.52-.36-.93-.59-1.12-1-.17-.37-.11-.75-.04-1.03.04-.32.15-.8.47-1.25.15-.21.41-.58.79-.6.02,0,.04,0,.05,0,1.89.55,4.64,1.16,8,1.23,2.73.06,5.54.12,8.66-1.11,6.2-2.44,8.99-8.13,9.65-9.61.81-1.81,2.29-5.69,1.42-10.63-.57-3.21-4.6-9.07-7.76-10.3-1.32-.51-3.66.11-4.18-1.48-.16-4.44-.85-8.82-1.73-13.15-1.97-9.67-2.87-14.1-4.73-18.3-.38-.85-.68-1.47-.94-2.01-4.85-9.91-10.54-15.97-11.96-17.43-2.19-2.27-5.4-5.24-9.75-8.2-2.1,5.26-10.1,14.85-16.29,13.89-12.31-1.92-14.94-11.83-10.61-22.39-2-.17-4.59-.34-7.63-.43-2.87-.08-8.12-.15-14.14.3-4.85.36-12.04,1.14-19.3,2.96,0,0-12.41,3.27-23.36,12.76-20.85,18.06-24.05,46.92-31.51,72.29C9.28,128.47,1.92,138.45.37,160c-.72,10.01-.26,18.35.27,23.99.91,5.34,2.92,12.71,7.58,20.32,2.32,3.79,8.61,11.75,19.05,18.76,1.13.76,5.97,2.48,6.37,2.84-2.16-10.35,19.69-21.32,24.69-11.6,3.82,7.42-4.56,13.95-10.53,16.57,5.16,1.34,12.05,2.92,20.27,4.16,5.44.83,14.68,2.2,25.39,2.21,9.94.01,31.43-.41,54.17-12.04,6.42-3.28,10.42-6.87,16.28-10.63,3.3-6.62,8.06-13.4,10.42-21.11,1.12-3.67,3.94-12.65.2-15.03-5.01-3.2-18.47,1.31-25.84,3.53-3.11,4.85-9.56,6.1-15.09,4.03-10.68-4.35-13.05-17.4-12.65-27.68.4-4.75,1.19-10.28,5.93-11.86,7.38-2.95,12.01,5.81,18.38,9.24.32-.02.76.09,1.24.13ZM145.6,59.45c2.06-1.32,6.23,3.37,10.9-.07,1.18-.87,3.53-5.98,5.68-2.89,3.22,4.62-8.44,13.18-15.61,7.13-1.73-1.46-2.07-2.01-.97-4.17Z"/>
      <path class="cls-10" d="M196.65,99.42c-.8-2.64.08-3.92.27-4.17,1.85-2.51,7.13-.8,7.98-.53,1.01.33,2.81,1.06,4.51,2.67,0,0,1.59,1.5,2.61,3.62,2.72,5.65.29,44.88-25.69,56.13-1.77.77-3.25,1.23-4.01,1.45.93-1.51,2.16-3.78,3.22-6.68,1.09-2.99,2.82-7.75,2.12-13.86-.32-2.76-.92-7.98-4.96-12.02-2.38-2.38-5.11-3.58-6.59-4.11-2.26-.81-5.08-.94-7.24-1.61v-1.42c9.92,2.08,14.31-1.05,16.99-10.63,1.03.04,3.5,0,5.98-1.54,3.89-2.42,4.69-6.6,4.82-7.3Z"/>
      <path class="cls-10" d="M176.55,176.57c.53.16,1.3.41,2.21.78,3.81,1.56,6.5,3.47,8.32,5.54,1.32,1.5,2.25,5.48,5.63,6.08,3.07-1.86,4.86-4.49,8.69-5.26,6.72-1.35,10.52,3.45,9.87,9.89-.75,7.41-11.64,23.78-17.61,28.44-10.88,8.5-19.64-3.9-29.75-7.46,3.3-6.62,8.06-13.4,10.42-21.11,1.12-3.67,3.94-12.65.2-15.03.67-.62,1.35-1.24,2.02-1.86Z"/>
      <path class="cls-10" d="M113.65,11.87c3.09-7.55,12.22-13.53,19.56-11.45,2.41.68,4.16,2.11,5.28,3.25.87.85,2.06,2.24,2.89,4.22,2.16,5.17.08,10.24-.82,12.49-2.1,5.26-10.1,14.85-16.29,13.89-12.31-1.92-14.94-11.83-10.61-22.39Z"/>
      <path class="cls-7" d="M163.2,48.02c3.74-.67,10.22-1.14,15.6,2.57,3.71,2.56,5.6,8.05,9.37,19.05,1.99,5.79,2.81,9.66,1.85,14.1-.51,2.35-1.37,4.19-2.04,5.4l-6.37,2.13c-.57-3.21-4.6-9.07-7.76-10.3-1.32-.51-3.66.11-4.18-1.48-.16-4.44-.85-8.82-1.73-13.15-1-4.9-2.98-13.87-4.73-18.3Z"/>
      <path class="cls-1" d="M49.22,27.46c-6.99-9.44-6.34-20.06-1.21-24.24,3.54-2.89,8.61-2.21,10.6-1.83,2.19.8,6.21,2.61,9.74,6.56,2.2,2.46,3.48,4.95,4.23,6.75-5.28,1.61-19.16,9.12-23.36,12.76Z"/>
      <path class="cls-10" d="M46.7,235.46c-1.43.63-4.35,1.67-7.86,1.11-2.8-.45-4.72-1.61-5.25-1.95-.94-.62-2.62-1.71-3.57-3.55-2.06-3.99.73-8.68,1.01-9.14,1.48-2.4,4.71-6.81,10.47-9.56,2.52-1.2,6.81-3.25,11.95-1.95,1.75.44,5.16,1.3,6.64,3.98,3.36,6.06-5.29,17.47-13.39,21.06Z"/>
      <g>
        <path class="cls-5" d="M187.98,89.13c.42-.06,1.01-.11,1.71-.04,1.73.18,2.92.98,3.4,1.31,1.46,1.01,2.18,2.25,2.49,2.8,0,0,.68,1.05.9,2.3,1.26,7.06-2.94,13.71-10.62,12.76-.32,0-3.02-.12-4.65-2.42-1.19-1.68-1.06-3.48-1.01-3.96.5-1.38.99-3.16,1.28-5.26.28-2.03.37-4.07.14-5.37l6.37-2.13Z"/>
        <circle class="cls-4" cx="194.33" cy="103.07" r="1.76"/>
        <circle class="cls-4" cx="196.55" cy="98.19" r="1.76"/>
        <circle class="cls-4" cx="188" cy="88.47" r="1.76"/>
        <circle class="cls-4" cx="185.11" cy="107.68" r="1.76"/>
        <circle class="cls-4" cx="180.12" cy="103.35" r="1.76"/>
        <circle class="cls-4" cx="190.54" cy="107.82" r="1.76"/>
        <circle class="cls-4" cx="195.09" cy="91.3" r="1.76"/>
      </g>
      <path class="cls-8" d="M145.6,59.45c2.06-1.32,6.23,3.37,10.9-.07,1.18-.87,3.53-5.98,5.68-2.89,3.22,4.62-8.44,13.18-15.61,7.13-1.73-1.46-2.07-2.01-.97-4.17Z"/>
      <path class="cls-10" d="M170.72,175.82c3.2.04,4.49.32,5.44.62.29.09.52.18.67.23-.77.59-1.53,1.18-2.3,1.76-2.14-.31-6.88-.89-10.9-.3-.39.06-1.53.24-2.96.53-.59.12-2.45.51-4.99,1.26-2.22.65-3.33.98-4.63,1.62-1.07.53-1.61.79-2.3,1.29-1.19.85-1.74,1.58-2.08,1.41-.3-.15-.27-.92-.09-1.5.29-.91,1.05-1.61,3.1-2.62,2.05-1.01,3.71-1.5,3.81-1.52,4.39-1.27,6.58-1.91,9.02-2.26,2.76-.41,4.98-.47,6.2-.51.88-.02,1.44-.02,2.01-.01Z"/>
      <path class="cls-10" d="M168.87,160.71c2.54.09,4.67-.18,5.31-.26,1.42-.19,2.49-.42,3-.53,3.11-.69,4.66-1.03,5.36-1.94.54-.71.76-1.07.76-1.07.38-.71.74-1.3.84-1.26.1.04-.2.58,0,.89.48.78,3.6-.42,3.66-.22.02.05-.2.15-.58.39-.28.18-.55.39-1.1.81-1.11.85-1.22,1.02-1.98,1.58-.24.17-.69.5-1.19.8-1.02.61-1.92.88-2.79,1.13-2.39.69-3.59,1.04-4.8,1.25-2.78.48-4.94.45-6.31.42-2.33-.05-4.03-.31-6.31-.64-2.08-.31-4.11-.63-6.62-1.29-7.05-1.84-11.1-4.57-11.02-5.05,0-.06.04-.11.04-.11.19-.33.96-.21,1.32-.15,2.84.48,6.23,1.53,6.23,1.53.8.25,1.62.46,2.42.69,3.24.92,4.86,1.38,5.42,1.53,2.98.79,5.26,1.39,8.34,1.5Z"/>
      <path class="cls-10" d="M157.29,115.74c1.74.7,2.87.91,6.74,1.89,2.11.54,3.8.99,4.83,1.27v1.42c-3.51-1.09-12.55-3.28-15.12-5.06-.84-.58-1.41-.83-1.16-2.02,1.9,1.29,3.57,2.05,4.71,2.51Z"/>
      <path class="cls-2" d="M199.96,78.5h13.47c2.45,0,2.45,5.9,0,5.9h-13.47c-1.96,0-3.01-4.87,0-5.9Z"/>
      <path class="cls-2" d="M197.22,70.48c-.29-.25-1.2-1.11-1.15-2.25.02-.49.22-.86.34-1.07,1.05-1.77,3.53-3.28,3.97-3.55,3.94-2.41,4.41-3.2,6.61-3.71,1.85-.42,2.51-.08,2.83.21.83.75.57,2.24.53,2.47-.18,1.01-.74,1.9-5.27,5.12-3.38,2.4-4.78,3.13-6.57,3.02-.55-.04-1-.14-1.3-.23Z"/>
      <path class="cls-10" d="M166.5,79.6c-4.11,1.76-4.46,2-4.51,2.42-.09.77.86,1.7,1.82,1.88.96.19,1.59-.44,3.1-1.35,1.86-1.12,3.49-2.11,4.3-1.99.09.01.43.08.58-.1.13-.15.05-.41.03-.46-.2-.69-1.76-1.2-3.23-1.08-.62.05-1.01.21-2.09.67Z"/>
    </g>
  </g>
</svg>