<?xml version="1.0" encoding="UTF-8"?>
<svg id="Calque_2" data-name="Calque 2" xmlns="http://www.w3.org/2000/svg" viewBox="0 0 248.83 283.5">
  <defs>
    <style>
      .cls-1 {
        fill: #403028;
      }

      .cls-2 {
        fill: tan;
      }

      .cls-3 {
        fill: #a3775f;
      }

      .cls-4 {
        fill: #805e4c;
      }

      .cls-5 {
        fill: #231c18;
      }

      .cls-6 {
        fill: #81504d;
      }

      .cls-7 {
        fill: #5f473a;
      }
    </style>
  </defs>
  <g id="Calque_1-2" data-name="Calque 1">
    <g>
      <path class="cls-6" d="M68.69,231.16c3.08,1.76,8.25,4.53,14.66,7.07,8.54,3.39,15.24,4.77,20.98,5.93,9.81,1.98,18.11,2.68,21.92,2.83,24.99,1.01,54.08-13.57,60.43-16.84.62.88,1.55,2.32,2.43,4.31.58,1.27,1.54,3.66,1.94,6.84,0,0,1.06,8.41-4,18.4-10.7,21.15-97.02,31.48-118.98,5.75-2.22-2.6-7.18-8.42-8.57-17.99-1.3-8.96,1.19-16.72,2.59-20.35,1.72,1.13,3.95,2.53,6.6,4.04Z"/>
      <path class="cls-3" d="M60.8,59.56c2.15-6.64,3.23-9.95,4.92-13.49,1.04-2.18,3.97-8.24,8.79-13.49,6.7-7.3,14.33-10.07,21.76-12.76,2.98-1.08,15.97-5.6,33.57-4.81,5.66.25,13.52.67,23.11,4.18,4.13,1.51,11.63,4.32,19.35,10.98,1.37,1.18,7.55,6.63,12.76,15.79,3.95,6.94,5.56,12.88,7.32,19.35,1.29,4.75,1.79,7.73,3.24,16,6.01,34.34-2.45-15.35,5.33,30.12,4.28,25.02,4.31,25.16,4.5,26.57,1.81,13.67,2.7,26.45,3.56,38.8.08,1.12.2,2.96.31,5.33.22,4.66.5,10.63.21,15.17-.64,9.96-4.36,17.55-5.33,19.45-1.33,2.6-4.64,8.51-10.88,14.12-7.37,6.64-14.69,9.14-25.31,12.76-4.15,1.42-11.08,3.74-20.5,5.18-10.21,1.55-17.72,1.11-32.32.16-24.56-1.6-34.61-4.82-38.75-6.28-5.69-2.01-10.91-4.47-16-8.63-4.67-3.82-7.56-7.7-8.94-9.57-4.3-5.84-6.46-11.16-7.37-13.65-2.27-6.18-2.83-11.19-3.18-14.55-.63-6.07-.29-10.67.43-19.62.59-7.41,1.33-12.94,1.44-13.73,6.76-50.15,6.83-47.3,11.45-76.59.41-2.58,1.21-7.73,2.9-14.43,1.29-5.12,2.58-9.13,3.63-12.37Z"/>
      <path class="cls-7" d="M38.07,156.55c-12.68-2.73-23.69-16.03-27.45-27.94-2.57-8.14-1.26-11.63-5.89-19.18-3.41-5.55-5.31-11.27-4.58-17.89.22-1.98,1.61-8.84,7.98-13.11,5.85-3.92,12.01-3.02,13.42-2.78,1.59.26,4.44.95,7.27,3.03,3.46,2.55,4.92,5.74,5.68,7.44,3.76,8.5.46,16.52.12,17.24-1.43,3.05-3.95,4.51-5.31,7.35-.1.89-.11,2.32.59,3.78.72,1.52,1.87,2.33,2.79,2.97,5.58,3.86,9.43,5.94,9.43,5.94,5.07,2.49,6.07,3.26,10.91,3.23,1.85-.01,3.71-.18,5.55.12.68.16,1.02.58,1.23,1.21,1.12,3.34-4.65,22.58-7.16,25.78-2.64,3.36-10.75,3.64-14.57,2.81ZM19.63,100.58c1.02-.43,3.12-1.51,4.37-3.8,1.66-3.04,1.25-7.19-.02-7.65-.34-.13-.49.11-1.71.46-1.86.54-2.4.25-3.25.58-1.64.64-2.54,2.85-2.67,4.49-.18,2.32,1.11,4.6,3.28,5.92Z"/>
      <path class="cls-7" d="M205.57,123.29c6.14-2.72,13.6-10.77,12-15.7-.57-1.76-1.7-1.24-3.59-3.71-3.8-4.96-2.77-11.62-2.4-14,.41-2.67.95-6.17,3.76-9.27,2.52-2.77,5.47-3.7,7.76-4.42,1.8-.57,8.24-2.48,15.33.47,1.87.78,5.71,1.9,7.78,5.58,4.59,8.18,2.57,17.6-1.47,25.4-.91,1.77-3.44,4.09-3.83,5.38-1.17,3.82-1.16,9.83-2.45,14.29-3.66,12.7-15.98,27.86-29.54,30.29-3.35.6-9.45-.09-11.75-2.9-2.44-2.98-6.7-23.16-5.66-26.64.89-2.97,8.38-2.56,11.62-3.48,1.18-.34,1.68-.95,2.44-1.29ZM231.29,97.13c3.82-4.22-3.05-8.34-6.06-10.56-8.08,5.21,0,17.24,6.06,10.56Z"/>
      <path class="cls-1" d="M175.41,240.94c-2.62,28.74-33.09,28.13-55.26,27.73.1,1.27.11,3.3-.56,5.65-.71,2.46-1.87,4.23-2.67,5.26-.35.6-1.44,2.28-3.65,3.26-2.07.92-3.93.67-4.63.55-2.46-.76-3.98-1.9-4.86-2.71-5.44-4.99-4.04-13.47-2.31-23.93.08-.51.25-1.57,1.04-2.52,1.04-1.26,2.69-1.73,4.57-2.16,5.72-1.31,12.92-1.25,18.8-1.47.03.05.85-.11,1.05.21,3.32,5.24,4.46,11.5,12.61,11.2,8.35-.31,9.19-7.99,8.21-14.62,1.22.63,1.81.37,2.97.14,8.38-1.66,16.72-3.47,24.69-6.57Z"/>
      <path class="cls-7" d="M74.52,32.77c-.75-.63-10.43-9.08-8.43-19.7.15-.81,1.95-9.68,8.42-11.45,3.24-.89,6.14.41,7.32.94,5.94,2.66,8.34,9.15,9.79,13.06.81,2.18,1.25,4.07,1.5,5.39-1.74.68-3.6,1.49-5.52,2.47-3.76,1.91-6.92,4.01-9.5,5.99-1,.91-2.01,1.84-3.01,2.77-.19.18-.38.35-.57.53Z"/>
      <path class="cls-7" d="M157.32,20.98c3.82-11.33,9.61-18.87,13.95-20.3,3.95-1.3,6.9-.34,6.9-.34,1.3.42,2.19,1.06,2.98,1.63,2.32,1.68,4.34,4.09,5.31,6.29,3.41,7.73-3.9,18.03-8.45,22.66-.87.89-1.66,1.58-2.22,2.06-.3-.25-.6-.49-.9-.74-2.42-1.98-5.23-4.06-8.44-6.12-3.23-2.07-6.31-3.76-9.13-5.14Z"/>
      <path class="cls-2" d="M75.97,185.59c.29-2.8,1.26-12.34,5.65-21.02,9.19-18.18,29.07-24.19,30.59-24.63,3.87-1.11,19.27-5.26,35.3,2.82,14.09,7.11,20.03,19.31,22.59,24.79,2.53,5.4,7.23,15.37,5.33,28.08-.6,4.04-1.91,12.05-8.47,19.3-5.47,6.04-11.73,8.15-17.73,10.2-11.34,3.86-20.98,3.24-26.67,2.82-8.45-.63-14.62-2.49-18.51-3.69-11.1-3.42-16.64-5.13-21.26-10.59-5.73-6.78-6.65-15.34-6.98-18.43-.42-3.88-.13-6.83.16-9.65Z"/>
      <path class="cls-4" d="M156.16,103.54c-.29,3.23-.57,6.06-2.2,9.41-.42.87-1.81,3.59-4.6,6.28-.77.73-4.08,3.8-11.19,5.96-3.42,1.04-6.69,1.56-9.73,1.74-2.72.16-5.26.05-7.53-.2-4.27-.47-7.64-1.43-9.67-2.01-4.09-1.17-6.67-2.48-8.89-4.39-2.99-2.57-4.53-5.55-4.92-6.33-.38-.76-.8-1.74-1.25-3.19-.79-2.54-1.52-6.07-1.52-11.56,0-3.32.04-8.66,1.94-15.33.96-3.37,1.89-6.55,4.29-10.2,2.86-4.35,6.07-6.73,6.74-7.22,3.86-2.8,7.48-3.78,9.41-4.29,5.67-1.48,10.28-.93,12.66-.63,2.61.34,6.55.88,10.98,3.3,1.63.89,4.68,2.58,7.43,5.96,2.06,2.53,2.94,4.77,4.24,8.05.5,1.27,2.13,5.56,3.14,11.71.52,3.17,1.18,7.41.68,12.92Z"/>
      <path class="cls-7" d="M84.36,216.43c3.34-.45,7.29,0,7.29,0,1.38.17,2.51.41,3.3.59,5.78,1.52,10.43,3.37,13.82,4.91,6.04,2.74,8.73,4.6,12.26,6.71,2.06,1.23,6.46,4.91,8.33,5.5,1.76.56,3.11-.33,6.04.3,2.08.45,3.61,1.17,4.3,1.53.59.3,2.76,1.47,4.67,3.53,3.44,3.72,4.01,8.25,4.33,10.37.98,6.63.14,14.31-8.21,14.62-2.26.08-3.99-.34-5.37-1.1-4.19-2.32-6.8-8.14-7.25-10.09-.08-.36-.33-1.66-1.38-2.37-.28-.19-.54-.29-.72-.34-3.12.17-6.1.54-9.24.57-3.08.1-7.12.22-10.2.32-3.56.11-7.63.23-11.19.34-3.64.12-14.14-.03-21.64-7.48-1.34-1.33-2.41-2.73-3.29-4.11-3.22-10.57,2.92-22.29,14.15-23.8Z"/>
      <path class="cls-5" d="M85.07,64.67c2.28,2,5.06,2.17,5.61,2.2.64.03,3.99.1,6.35-2.16,1.93-1.85,1.6-3.73,3.53-4.47.96-.37,2.22-.37,3.18.27,1.47.99,1.49,3.04,1.49,3.29-.02,3.96-5.96,6.77-7.06,7.3-1.24.59-6.88,3.26-13.1.9-1.51-.57-5.23-2.27-7.14-6.04-.51-1.01-1.7-3.36-.63-4.82.8-1.08,2.62-1.39,3.96-.9,1.9.69,1.62,2.52,3.8,4.43Z"/>
      <path class="cls-5" d="M155.34,64.75c2.28,2,5.06,2.17,5.61,2.2.64.03,3.99.1,6.35-2.16,1.93-1.85,1.6-3.73,3.53-4.47.96-.37,2.22-.37,3.18.27,1.47.99,1.49,3.04,1.49,3.29-.02,3.96-5.96,6.77-7.06,7.3-1.24.59-6.88,3.26-13.1.9-1.51-.57-5.23-2.27-7.14-6.04-.51-1.01-1.7-3.36-.63-4.82.8-1.08,2.62-1.39,3.96-.9,1.9.69,1.62,2.52,3.8,4.43Z"/>
      <path class="cls-1" d="M112.19,77.66c7.18-1.56,8.01,8.07,3.58,9.38-7.9,2.34-9.78-8.04-3.58-9.38Z"/>
      <path class="cls-1" d="M140.49,78.37c4.23,3.5.89,11.19-5.6,8.48s.13-13.01,5.6-8.48Z"/>
      <path class="cls-1" d="M128.45,107.46v19.47c-2.72.16-5.26.05-7.53-.2v-19.27c0-2.08,1.69-3.77,3.76-3.77,1.04,0,1.98.42,2.66,1.1.68.68,1.1,1.62,1.1,2.66Z"/>
      <rect class="cls-7" x="152.95" y="36.81" width="19.53" height="4.24" rx="1.86" ry="1.86" transform="translate(3.56 -12.67) rotate(4.51)"/>
      <rect class="cls-7" x="80.32" y="35.58" width="19.53" height="4.24" rx="1.86" ry="1.86" transform="translate(-1.71 4.37) rotate(-2.75)"/>
    </g>
  </g>
</svg>