<?xml version="1.0" encoding="UTF-8"?>
<svg id="Calque_2" data-name="Calque 2" xmlns="http://www.w3.org/2000/svg" viewBox="0 0 107.78 172.99">
  <defs>
    <style>
      .cls-1 {
        fill: #403028;
      }

      .cls-2 {
        fill: #f5dab0;
      }

      .cls-3 {
        fill: #dbc7bc;
      }

      .cls-4 {
        fill: #452b1a;
      }

      .cls-5 {
        fill: tan;
      }

      .cls-6 {
        fill: #fff;
      }

      .cls-7 {
        fill: #c49f7a;
      }

      .cls-8 {
        fill: #edd8be;
      }

      .cls-9 {
        fill: #371e1a;
      }

      .cls-10 {
        fill: #a3775f;
      }

      .cls-11 {
        fill: #805e4c;
      }

      .cls-12 {
        fill: #231c18;
      }

      .cls-13 {
        fill: #d09b60;
      }

      .cls-14 {
        fill: #e4c293;
      }

      .cls-15 {
        fill: #5f473a;
      }

      .cls-16 {
        fill: #cf995f;
      }

      .cls-17 {
        fill: #d5d4dd;
      }
    </style>
  </defs>
  <g id="Calque_1-2" data-name="Calque 1">
    <g>
      <path class="cls-10" d="M30.62,19.34c1.9-5.11,3.87-7.76,4.75-8.87,2.97-3.72,6.11-5.57,7.7-6.48,7.98-4.59,19.5-5.65,29.64-.89,2.67,1.26,9.28,4.47,13.65,11.91.69,1.17,1.15,2.15,1.5,2.94,4.18,9.3,6.7,20.82,9.55,34.46,0,0,1.67,8.03,4.87,25.36.56,3.04,1.09,5.99,1.47,10.05.45,4.96.96,10.43-.13,17.14-.62,3.83-1.48,9.12-4.87,14.7-3.51,5.78-7.82,8.73-10.46,10.49-7.26,4.84-14.07,5.72-18.86,6.28-4.29.5-10.39,1.22-17.93-1.03-1.89-.56-14.93-4.67-23.06-17.58-3.1-4.91-4.39-9.38-4.67-10.34-1.47-5.22-1.48-9.51-1.47-11.82.08-12.95,1.39-25.77,2.13-33.32.9-9.16,2.31-18.25,3-27.43.2-2.64.62-8.63,3.2-15.57Z"/>
      <ellipse class="cls-5" cx="50.68" cy="104.83" rx="23.99" ry="25.39"/>
      <path class="cls-15" d="M86.92,149.43c-.11.53-.36,1.56-1.13,2.59-.91,1.22-2.12,1.84-3.4,2.35-2.64,1.05-6.65,2.66-11.51,1.46-1.69-.42-3.1-.79-3.95-2.09-1.04-1.59-.83-3.92.19-5.43,1.15-1.7,2.46-1.1,3.42-2.7.63-1.05.37-1.82.3-6-.02-1.42-.02-2.59,0-3.37,2.49-.32,5.61-.95,9.05-2.18,3.61-1.29,6.53-2.88,8.71-4.27-.59,2.98-.77,5.43-.82,7.14-.09,2.82.04,8.22-.86,12.49Z"/>
      <path class="cls-15" d="M76.78,15.57c1.68-2.37,4.85-4.17,8.12-3.65.68.11,2.26.36,3.53,1.62,2.67,2.65,1.97,7.74-.26,10.65-.48.63-1.53,1.96-3.39,2.51-2.98.87-5.57-1.03-6.07-1.4-3.01-2.21-3.32-5.77-3.36-6.35.14-.75.49-2.07,1.42-3.39Z"/>
      <path class="cls-1" d="M12.63,83.5c1.8.12,2.88,1.48,3.03,1.69.7.96,1.04,2.21.83,3.45.36.3,1.42,1.25,1.82,2.9.37,1.53-.04,2.76-.21,3.21.14.13,1.2,1.18.99,2.57-.21,1.4-1.57,2.07-1.96,2.25-2.48,1.21-5.42-.58-5.77-.82-3.12-2.18-3.72-5.9-3.88-7.06-.16-1.2-.57-4.16,1.27-6.37.44-.53.91-.89,1.25-1.12.36-.21,1.35-.8,2.62-.71Z"/>
      <path class="cls-6" d="M29.95,55.73c1.33.89,2.93,1.42,4.65,1.42,4.66,0,8.43-3.79,8.43-8.46,0-2.41-1.01-4.59-2.63-6.13l-10.46,13.16Z"/>
      <path class="cls-11" d="M53.8,51.02c1.05.6,2.78,1.78,4.27,3.83,1.27,1.74,1.87,3.43,2.16,4.53.51,1.4,1.2,3.88.9,6.96-.13,1.37-.4,4.11-2.11,6.36-3.56,4.68-10.81,3.8-11.33,3.73-1.53-.23-4.02-.8-6.65-2.41-2.01-1.23-3.4-2.65-4.29-3.7-.68-2.35-.84-4.37-.85-5.78-.01-1.55-.02-3.39.75-5.35.24-.62.68-1.53,1.13-2.37.39-.71.7-1.28,1.13-1.9,1.35-1.89,3-2.92,3.8-3.4.53-.32,1.28-.78,2.39-1.14,3.16-1.03,5.66-.49,8.68.64ZM41.8,58.48c-2.64.4-2.45,5.28.55,5.08,3.2-.21,2.61-5.57-.55-5.08ZM51.78,58.8c-2.5.52-2.73,5.09.54,4.76,2.86-.28,2.74-5.45-.54-4.76ZM54.44,72.57c.57-2.33-3.17-3.65-5.02-3.82-2.33-.2-3.54.27-4.58,2.43l1.03,1.04c1.57-2.11,3.52-1.83,5.76-.86.87.37,1.47,1.58,2.81,1.21Z"/>
      <path class="cls-1" d="M29.66,25.51c-.73-.4-3.94-2.24-4.75-5.84-.15-.67-.45-2.11.15-3.75.14-.38,1.04-2.69,3.5-3.53,1.82-.62,3.39-.05,3.93.15,1.39.52,2.22,1.41,2.73,1.96.8.86,1.28,1.72,1.56,2.32-.16,1.02-.7,3.43-2.68,5.66-1.63,1.84-3.48,2.67-4.44,3.03Z"/>
      <g>
        <path class="cls-2" d="M23.89,104.08c2.83,1.87,4.23,1.17,7.53,1.31.99.04,2.15.96,3.24.95.98,0,1.79-.76,2.86-.65.91.09,1.99,1.12,3,1.22.89.08,1.75-.61,2.82-.61,1.25,0,2.09.83,3.25.97,1.01.12,1.58-.3,2.06-.3,2.29-.02,4.2.44,6.43.64,1.06,6.07.21,15.73-.96,21.87-.39,2.06-1.03,4.1-1.61,6.11-1.62,5.64-4.23,12.63-7.72,17.37-.11.32-.21.64-.32.96-.64.15-2.36,2.85-2.89,3.54-.06.08-.28.48-.64.96-.34.47-.63.79-.67.84-.45.52-3.51,4.87-1.92,9.03.26.69.89,1.99,2.45,3.22-.27.09-.65.17-1.11.17-.3,0-.55-.04-.76-.08-10.47-2.29-21.36-3-31.83-5.21-.31-.07-1.68-.46-1.84-.57-.78-.49-2.01-2.81-2.17-3.77-1.04-6.11,3.96-9.54,7.12-13.95,8.77-12.22,11.52-29.69,8.56-44.34.76.17,4.93.18,5.15.32ZM49.58,113.38c.25-2.36-.84-1.15-2.03-1.26-1.01-.09-1.61-1-3.25-.99-1.24,0-2.11.71-2.87.67-1.12-.07-2.13-1.43-3.26-1.59-1.55-.23-2.26.71-3.51.66-1.07-.04-1.77-.91-2.9-1.01-1.42-.12-2.57.65-3.55.62-1.06-.03-2.55-1.88-3.67-.42-.25.99,2.61,1.96,3.39,2.06,1.36.16,2.31-.76,3.48-.63s1.67,1.38,3.24,1.31c1.02-.05,2.01-.97,2.91-.96s2.01,1.39,3.23,1.56c1.55.22,2.2-.66,3.51-.66,1.74,0,3.23,1.88,5.28.65ZM49.93,118.56c-.88-.12-1.89.63-2.69.55-.89-.09-2.32-1.41-3.62-1.51-1.12-.09-1.73.7-2.85.66-1.26-.05-1.8-1.12-2.92-1.3-1.53-.24-2.66.63-3.47.55s-1.75-1.14-2.95-1.22c-1.32-.09-1.95.68-2.89.68-.83,0-3.25-1.96-3.7-.5s3.22,2.2,4.31,2.06c.68-.09,1.38-.6,1.96-.59,1.02.01,2.05,1.35,3.53,1.28.93-.04,1.51-.78,2.55-.67.98.1,1.9,1.31,3.07,1.47s2.29-.7,3.69-.5c1.77.26,3.31,2.43,5.93.59l.04-1.56ZM26.67,123.19c-3.17-1.6-3.11,1.3-.03,1.77,1.65.25,3-.63,3.79-.55.67.07,1.69,1.25,2.76,1.39s2.19-.63,3.4-.53c1.09.09,1.81,1.17,2.92,1.31,1.31.16,2.13-.66,3.16-.62,1.8.08,4.69,2.84,6.62.46.24-1.12-2.29-.73-2.98-.87-1.75-.36-2.43-1.51-4.56-1.2-.6.09-1.11.6-1.63.61-.79,0-1.91-1.09-2.92-1.24-1.51-.23-2.89.51-4.14.3-.79-.14-1.61-1.11-2.67-1.21-1.3-.12-2.83.92-3.45.91-.17,0-.18-.47-.29-.53ZM23.58,130.11c1.11.2,1.91,1.22,3.08,1.29,1.02.07,1.97-.52,3.16-.3.77.14,1.13.83,2.26.96,1.3.15,2.61-.45,3.52-.33.86.11,1.39,1.16,2.59,1.31,1.27.15,2.43-.47,3.52-.34,1,.12,1.57,1.1,2.62,1.27.71.11,3.1-.05,3.34-.8.57-1.76-2.23-.7-2.97-.84-.86-.17-1.81-1.36-3.06-1.5-1.16-.13-1.85.63-2.79.58s-1.9-1.11-2.94-1.26c-1.37-.2-2.55.51-3.76.25-.83-.18-1.54-1.16-2.67-1.21-.91-.04-1.67.68-2.53.62-1.04-.07-2.02-1.75-3.25-.65l-.13.96ZM21.64,135.6l.31,1.13c.75.32,1.58.04,2.36.22.84.19,1.49,1.09,2.68,1.21,1.36.13,2.64-.78,3.74-.58.83.15,1.66,1.28,2.4,1.48,1.55.41,2.79-.39,4.07-.24,1.19.14,1.83,1.53,3.27,1.58.66.03,1.42-.32,2.23-.33s2.77.78,3.05-.13c.6-1.94-4.58-1.32-5.55-1.52-.8-.16-1.64-1.02-2.39-1.14-.93-.15-2.68.43-3.77.25-.97-.16-1.74-1.4-2.93-1.59-1.73-.28-2.41.64-3.52.65s-1.9-1.14-2.97-1.24c-.85-.08-2.01.51-2.98.26ZM19.92,141.12c-.66.21-.76,1.1-.22,1.4.57.31,1.39.03,2.03.22s1.25,1.24,2.46,1.4c1.1.15,2.17-.69,3.37-.5.77.12,1.22.88,1.82,1.1,1.86.7,3.86-.27,5.05.06,1.06.3,1.89,1.61,3.15,1.72.89.08,1.82-.46,2.87-.34.58.06,2.12,1.26,2.4.18.63-2.41-4.42-1.57-5.56-1.83-.99-.22-1.91-1.46-3.31-1.52-1.04-.04-2.05.77-3.12.57-.81-.15-1.76-1.28-3.05-1.48-1.39-.22-2.32.38-3.43.24-1.43-.18-2.17-1.94-4.48-1.23ZM9.09,155.86l.04,1.09.5.47,23.14,4.22c1.96.14,2-1.36-.13-1.83-6.09-1.33-13.11-2.53-19.29-3.54-.58-.09-4.11-.55-4.26-.4Z"/>
        <path class="cls-14" d="M47.69,76.43c.23.47,1.07,2.63,1.29,3.22.18.49.16,1.57.41,2.33.84,2.56,2.04,5.2,2.16,7.97-2.25.69-3.15,2.59-3.88,4.66,1.1.29.25.55.38,1.24.07.37.57.48.6.54.04.08.02.48,0,.64-.08.87-.57,1.4-.24,2.66.17.64,1.54,2.24,2.17,2.49-.32,1.28.52,1.38.96,1.93.99,1.2,1.65,1.79,3.22,2.25.31.39.24.84.32,1.29-2.23-.21-4.15-.66-6.43-.64l-.54-1.3c-1.73.61-3.16-1.14-4.48-1.27-1.08-.11-1.91.66-2.87.65s-1.91-.91-2.91-.96-2.47.59-3.47.52c-.88-.06-1.63-.85-2.6-.87-.9-.02-2.3.65-3.19.55-1.01-.11-3.94-2.69-4.7-.22-.21-.14-4.39-.15-5.15-.32-.22-1.1-.91-3.43-1.61-4.18,1.84-.84,2.52-3.34.96-4.82.06-.07.6-1.59.63-1.79.23-1.72-.55-3.69-2.24-4.32.42-2.48-1.34-5.02-3.86-5.15l-.96-2.89c7.6.69,15.16,1.73,22.76,2.37.47-.13.73-.2.97-.67.5-.97.63-3.87,1.11-5.32,1.09-3.24,3.01-4.94,6.34-5.72,1.21.39,1.56.64,2.41,1.6.49.55,2.12,2.94,2.41,3.54ZM45.11,88.64l-.14-.98c-.63-.86-3.26.02-4.17,0-1.19-.04-2.78-.87-4.22-.78-.72.04-1.36.56-2.24.51-.98-.06-1.98-1.22-3.27-1.22-.8,0-1.63.88-2.46.79-.69-.07-1.69-1.04-2.66-1.1s-2.13.59-3.16.55c-1.16-.04-2.43-1.36-2.75.15-.29,1.36,2.69,1.55,3.68,1.42.77-.1,1.51-.66,2.26-.61.9.06,1.78,1.23,2.94,1.27,1.02.03,1.62-.82,2.27-.88.75-.07,1.99,1.15,3.17,1.24,1.26.09,2.01-.6,2.92-.65,1.13-.06,2.09.9,3.2.97.54.03,4.53-.47,4.66-.67ZM22.17,91.57c-2.41.7,2.18,2.4,2.92,2.47,1.26.12,2.43-.92,3.43-.89,1.11.04,2.37,1.28,3.89,1.27,1.19,0,2.85-1.03,3.79-.9s2.69,1.57,3.93,1.57c.76,0,1.26-.54,1.95-.65.88-.14,3.49.69,3.68-.18.45-2.19-5.66-.98-6.57-1.14s-1.94-1.14-2.94-1.26c-1.64-.19-2.63.97-3.83.98-1.05,0-2.32-1.15-3.62-1.23-1.11-.07-2.32.6-3.46.59-1.07,0-2.39-.86-3.16-.64ZM46.7,100.21l-.49-1.56c-1.71.97-3.08-.56-4.54-.58-.94-.01-1.79.68-3.16.56s-1.95-1.09-3.87-1c-1.07.05-2.07.71-2.87.66-.98-.06-2.22-1.31-3.57-1.29-.87.01-1.49.69-2.56.69-.97,0-2.73-1.28-3.05.14-.24,1.07,2.88,1.5,3.66,1.42.66-.07,1.22-.53,1.91-.53,1.31.01,2.19,1.08,3.26,1.21,1.53.17,2.29-.71,3.55-.7,1.17,0,1.92.89,3.22,1.01,1.39.12,2.54-.43,3.85-.34,1.55.11,2.83,1.2,4.65.32Z"/>
        <path class="cls-2" d="M24.53,68.71c3.92.41,8.23,1.05,12.22,1.61,1.95.27,4.24.36,6.11.96-3.33.78-5.25,2.48-6.34,5.72-.49,1.44-.61,4.35-1.11,5.32-.24.47-.51.53-.97.67-7.6-.64-15.16-1.68-22.76-2.37-3.36-.3-6.74-.58-10.12-.65-2-.37-1.59-3.62-1.31-5.15.48-2.63,3.31-7.05,6.12-7.39,1.98-.24,6.19.17,8.36.33,3.23.24,6.6.62,9.81.96Z"/>
        <path class="cls-14" d="M53.8,160.36c-.69.3-1.22.26-1.93.64-.11.06-.21.24-.32.32-1.04.77-.85,1.09-1.29,1.61-.45.53-.65.86-.96,1.29-1.96,2.63-4.24,6.72-7.71,7.27-.76.12-1.14-.2-1.61-.19-1.2-1.19-1.71-2.35-1.94-3.04-1.56-4.65,2.24-9.1,2.46-9.34.18-.21.34-.37.45-.48,3.28.3,6.54.87,9.81,1.28,1.73.22,1.38-.14,3.05.64Z"/>
        <path class="cls-8" d="M53.47,164.54c.4.1.75.24.79.26.33.13.66.28.81.38-.06.07.09.39-.39.75-2.69,1.99-12.03,6.7-15.19,6.98-4.84.42-12.98-.91-17.98-1.66-2.25-.34-16.49-2.83-17.23-3.84l.95-1.59c.17.1,1.54.5,1.84.57,10.47,2.21,21.36,2.91,31.83,5.21.46.01,1.05,0,1.73-.1,0,0,.59-.09,1.17-.25,1.04-.29,4.18-2.93,7.58-7.31.47.14.85.22,1.08.26,1.26.22,1.94.07,3,.35Z"/>
        <path class="cls-13" d="M53.8,160.36c1.98.93,2.71,1.67,2.05,4.13-.26.99-.7.62-.77.69-.56-.2-1.19-.39-1.86-.55-1.48-.35-2.82-.46-3.94-.47.08-.38.24-.89.54-1.44.45-.8,1.01-1.32,1.38-1.61.35-.21.84-.44,1.47-.6.43-.11.81-.15,1.13-.16Z"/>
      </g>
      <path class="cls-15" d="M76.31,104.08c-5.42,2.19-15.96,3.91-21.55,2.25-.9-.27-1.66-.73-1.66-.73-3.12-1.77-4.32-4.91-4.69-5.94-.72-1.96-.81-3.76-.74-5.07.73-2.07,1.63-3.96,3.88-4.66,4.19-1.3,7.51.71,11.42.96,3.67.23,4.96.07,8.2-1.28,9.11-3.8,9.05-8.2,13.56-15.54,3.43-5.59,9.13-1.3,9.61,4.12.96,10.97-8.28,21.96-18.02,25.9Z"/>
      <path class="cls-1" d="M52.51,135.6c.85.27,1.81.53,2.89.74.92.17,1.78.28,2.55.34-.29,4.49-.58,8.01-.81,10.48-.07.74-.09,1.01-.2,1.38-1.19,3.98-8.11,5.21-12.87,5.64.08-.12.2-.33.35-.59.22-.41.37-.72.4-.78.53-1.14,2.01-3.43,2.01-3.43.63-.98,1.58-2.67,2.88-5.75.47-1.08.94-2.23,1.38-3.46.58-1.6,1.05-3.13,1.43-4.56Z"/>
      <path class="cls-12" d="M28.07,39.77c6.07-4.3,15.74-1.12,17.05,6.43,1.01-.36,2.62-.8,4.63-.78,1.88.02,3.39.43,4.37.78.19-.89.91-3.72,3.54-5.79,1.52-1.19,3.06-1.65,3.99-1.84,1.36-.38,3.37-.71,5.68-.27,1.02.2,5.44,1.19,7.71,5.15.62,1.08.91,2.09,1.06,2.76,4.12-1.7,8.24-3.41,12.36-5.11.54-.23,1.17-.11,1.56.3.45.46.5,1.18.19,1.67-.18.29-.45.43-.59.49-4.31,1.86-8.61,3.72-12.92,5.58-.33,2.86-1.2,5.75-3.27,7.83-3.37,3.39-8.91,4.42-13.2,2.4-5.17-2.44-6.37-7.98-6.43-8.36-.12-.82-.13-.88-.13-.88-.03-.51.03-.79-.15-1.12-.1-.19-.24-.3-.31-.36-1.03-.86-3.64-.86-3.64-.86s-1.79,0-3.75.72c-.12.04-.34.13-.52.35-.41.5-.25,1.24-.18,1.51-.38.15-.8.33-1.23.55-.48.25-.91.5-1.28.75.05-.38.14-1.18.18-1.86,0-.14.01-.28.01-.44,0-.35-.02-.66-.05-.94-.07-.64-.14-1.28-.21-1.92-1.35-7.14-11.88-8.66-15.11-1.93-.75,1.55-1.85,4.28-.32,5.79.04.46-.01.85.08,1.35.71,3.87,7.39,6.27,10.86,4.76-.23.43-.74,1.96-.96,2.57-2.45.85-5.67-.06-7.83-1.34-1.4-.83-2.28-1.68-2.46-1.88-2.83-2.98-3.45-7.46-2.38-10.68.44-1.34,1.19-2.51,1.35-2.74,0,0,.96-1.69,2.32-2.66ZM63.04,40.81c-9.6,1.5-8.79,16.03.89,16.96,13.65,1.31,13.26-19.18-.89-16.96Z"/>
      <path class="cls-15" d="M57.67,40.24c-1.97.9-3.62.66-4-.07-.33-.64.32-1.62.5-1.87.18-.13.36-.27.55-.4,2.89-2.06,6.64-3.99,11.48-5.19.18,0,.97-.03,1.42.52,0,0,.31.37.32.95.02,1.59-5.5,3.6-6,3.78-1.42.77-2.85,1.53-4.27,2.3Z"/>
      <path class="cls-1" d="M42.4,36.05c1.97,1.46,3.32,2.04,3.27,3.09,0,.05-.03.6-.45.97-.7.61-1.83.15-1.87.13-1.85-1.32-3.41-2.25-4.51-2.86-1.94-1.08-3.25-1.68-3.64-3-.42-1.4.55-2.31,1.95-1.95.75.19,4.33,2.94,5.25,3.62Z"/>
      <path class="cls-15" d="M52.51,40.89c-.24.8-1.88.64-2.19-.39-.19-.64-.18-3.71.1-4.28.46-.95,2.09-.72,2.09-.16.08.69.14,1.47.15,2.31,0,.93-.06,1.77-.15,2.51Z"/>
      <path class="cls-15" d="M47.13,41.44c-.26-.14-.38-.36-.42-.46-.08-.42-.74-4.14.06-5,.12-.12.41-.44.76-.4.22.02.38.18.52.35,1.03,1.33.66,4.26.61,4.64-.02.14-.06.43-.28.66-.28.29-.81.44-1.24.21Z"/>
      <g>
        <path class="cls-7" d="M49.93,118.56l-.04,1.56c-2.62,1.84-4.15-.33-5.93-.59-1.4-.2-2.56.65-3.69.5s-2.09-1.37-3.07-1.47c-1.04-.11-1.62.63-2.55.67-1.48.07-2.51-1.27-3.53-1.28-.59,0-1.28.5-1.96.59-1.09.14-4.76-.59-4.31-2.06s2.87.5,3.7.5c.94,0,1.57-.78,2.89-.68,1.2.08,2.15,1.15,2.95,1.22s1.94-.79,3.47-.55c1.12.18,1.67,1.24,2.92,1.3,1.12.05,1.73-.74,2.85-.66,1.3.1,2.73,1.42,3.62,1.51.8.08,1.81-.67,2.69-.55Z"/>
        <path class="cls-7" d="M49.58,113.38c-2.05,1.24-3.53-.65-5.28-.65-1.31,0-1.96.88-3.51.66-1.22-.17-2.32-1.54-3.23-1.56s-1.89.91-2.91.96c-1.57.07-2.08-1.19-3.24-1.31s-2.12.8-3.48.63c-.79-.1-3.65-1.06-3.39-2.06,1.13-1.46,2.61.39,3.67.42.98.03,2.13-.74,3.55-.62,1.13.1,1.84.96,2.9,1.01,1.25.05,1.95-.89,3.51-.66,1.14.17,2.14,1.53,3.26,1.59.76.05,1.63-.66,2.87-.67,1.64,0,2.23.9,3.25.99,1.18.1,2.27-1.1,2.03,1.26Z"/>
        <path class="cls-7" d="M26.67,123.19c.12.06.12.53.29.53.62,0,2.14-1.03,3.45-.91,1.06.09,1.88,1.07,2.67,1.21,1.25.22,2.63-.53,4.14-.3,1,.15,2.13,1.25,2.92,1.24.51,0,1.03-.52,1.63-.61,2.13-.32,2.81.83,4.56,1.2.68.14,3.21-.24,2.98.87-1.93,2.38-4.82-.38-6.62-.46-1.03-.04-1.85.77-3.16.62-1.11-.13-1.83-1.21-2.92-1.31-1.21-.1-2.33.68-3.4.53s-2.09-1.32-2.76-1.39c-.79-.09-2.14.8-3.79.55-3.08-.47-3.14-3.38.03-1.77Z"/>
        <path class="cls-7" d="M23.58,130.11l.13-.96c1.24-1.1,2.21.58,3.25.65.86.06,1.62-.66,2.53-.62,1.13.05,1.84,1.03,2.67,1.21,1.21.27,2.4-.45,3.76-.25,1.03.15,2.03,1.2,2.94,1.26s1.63-.71,2.79-.58c1.24.14,2.2,1.33,3.06,1.5.73.15,3.53-.92,2.97.84-.24.76-2.63.91-3.34.8-1.05-.16-1.63-1.15-2.62-1.27-1.09-.13-2.25.49-3.52.34-1.2-.14-1.73-1.2-2.59-1.31-.91-.11-2.22.49-3.52.33-1.13-.13-1.49-.82-2.26-.96-1.19-.22-2.14.37-3.16.3-1.17-.08-1.97-1.09-3.08-1.29Z"/>
        <path class="cls-7" d="M23.89,104.08c.76-2.47,3.69.12,4.7.22.89.1,2.29-.57,3.19-.55.97.02,1.72.8,2.6.87,1,.07,2.51-.56,3.47-.52s1.92.95,2.91.96,1.79-.76,2.87-.65c1.32.13,2.74,1.88,4.48,1.27l.54,1.3c-.48,0-1.04.42-2.06.3-1.15-.14-1.99-.97-3.25-.97-1.06,0-1.93.69-2.82.61-1.01-.09-2.09-1.13-3-1.22-1.07-.11-1.88.65-2.86.65-1.09,0-2.25-.91-3.24-.95-3.3-.14-4.71.57-7.53-1.31Z"/>
        <path class="cls-7" d="M9.09,155.86c.15-.15,3.68.31,4.26.4,6.18,1.01,13.2,2.21,19.29,3.54,2.12.46,2.09,1.97.13,1.83l-23.14-4.22-.5-.47-.04-1.09Z"/>
        <path class="cls-7" d="M21.64,135.6c.98.25,2.13-.34,2.98-.26,1.07.1,1.84,1.25,2.97,1.24s1.79-.93,3.52-.65c1.19.19,1.96,1.42,2.93,1.59,1.09.18,2.84-.4,3.77-.25.76.13,1.59.98,2.39,1.14.97.2,6.16-.42,5.55,1.52-.28.91-2.26.13-3.05.13s-1.56.36-2.23.33c-1.45-.06-2.08-1.44-3.27-1.58-1.28-.15-2.53.65-4.07.24-.74-.2-1.57-1.33-2.4-1.48-1.1-.2-2.38.71-3.74.58-1.18-.11-1.84-1.02-2.68-1.21-.78-.17-1.6.1-2.36-.22l-.31-1.13Z"/>
        <path class="cls-7" d="M19.92,141.12c2.31-.71,3.05,1.05,4.48,1.23,1.11.14,2.04-.46,3.43-.24,1.29.2,2.24,1.33,3.05,1.48,1.07.2,2.07-.61,3.12-.57,1.4.06,2.31,1.29,3.31,1.52,1.14.26,6.19-.58,5.56,1.83-.28,1.08-1.82-.12-2.4-.18-1.05-.12-1.98.42-2.87.34-1.26-.11-2.1-1.43-3.15-1.72-1.19-.33-3.19.64-5.05-.06-.61-.23-1.05-.98-1.82-1.1-1.19-.19-2.26.65-3.37.5-1.21-.16-1.84-1.22-2.46-1.4s-1.46.1-2.03-.22-.44-1.2.22-1.4Z"/>
        <path class="cls-7" d="M24.14,148.05c.22.02.41.04.53.05,1.37-.71,2.18.83,3.54,1.02,1.43.2,2.98-.48,4.11-.28,1.04.19,1.7,1.19,2.68,1.53,1.82.63,3.12-.15,4.78.31.66,2.82-1.25,1.08-2.21,1.04-.91-.04-1.94.47-3.22.26-1.31-.21-1.61-1.3-2.33-1.52-1.26-.39-3.14.55-4.74.24-.98-.19-1.78-1.42-2.95-1.49-.94-.06-1.8.65-3.08.48-1.04-.14-1.76-.98-2.41-1.15-.72-.18-1.85.11-2.34-.23-.3-.2-.41-.56-.32-.87.02-.05.07-.23.32-.44.51-.43,1.16-.43,1.38-.43.35,0,.61.08.7.1,1.43.4,1.8,1.02,2.89,1.25.67.14.69-.05,2.69.11Z"/>
        <path class="cls-7" d="M45.11,88.64c-.13.2-4.12.71-4.66.67-1.11-.07-2.06-1.03-3.2-.97-.91.05-1.65.74-2.92.65-1.17-.08-2.42-1.3-3.17-1.24-.65.06-1.25.92-2.27.88-1.16-.04-2.04-1.21-2.94-1.27-.75-.05-1.49.51-2.26.61-.99.13-3.97-.06-3.68-1.42.32-1.51,1.6-.19,2.75-.15,1.04.04,2.21-.61,3.16-.55s1.97,1.03,2.66,1.1c.83.09,1.66-.79,2.46-.79,1.3,0,2.29,1.17,3.27,1.22.88.05,1.52-.47,2.24-.51,1.45-.09,3.03.74,4.22.78.91.03,3.54-.85,4.17,0l.14.98Z"/>
        <path class="cls-7" d="M22.17,91.57c.78-.23,2.09.63,3.16.64,1.14,0,2.35-.65,3.46-.59,1.3.08,2.57,1.23,3.62,1.23,1.2,0,2.19-1.17,3.83-.98,1,.12,2.07,1.1,2.94,1.26s7.03-1.05,6.57,1.14c-.18.87-2.79.04-3.68.18-.68.11-1.19.65-1.95.65-1.24,0-2.96-1.44-3.93-1.57s-2.59.9-3.79.9c-1.52,0-2.78-1.24-3.89-1.27-1-.03-2.17,1.01-3.43.89-.74-.07-5.32-1.77-2.92-2.47Z"/>
        <path class="cls-7" d="M46.7,100.21c-1.83.88-3.1-.2-4.65-.32-1.31-.1-2.46.46-3.85.34-1.3-.11-2.04-1-3.22-1.01-1.26,0-2.02.88-3.55.7-1.07-.12-1.96-1.2-3.26-1.21-.68,0-1.24.46-1.91.53-.78.08-3.9-.35-3.66-1.42.32-1.42,2.08-.14,3.05-.14,1.07,0,1.69-.68,2.56-.69,1.34-.02,2.58,1.23,3.57,1.29.8.05,1.8-.61,2.87-.66,1.92-.09,2.44.87,3.87,1s2.22-.57,3.16-.56c1.46.02,2.83,1.55,4.54.58l.49,1.56Z"/>
      </g>
      <path class="cls-4" d="M16.49,88.65c1.69.63,2.47,2.59,2.24,4.32-.03.2-.57,1.72-.63,1.79-.35.37-3.22,1.73-3.87,1.14-1.23-.81,2.15-2.11,2.6-2.89,1.49-2.55-2.62-3.59-4.52-3.07l.53-1.56c1.21-.11,2.5-.15,3.65.28Z"/>
      <path class="cls-4" d="M47.72,96.58c4.85-1.24,6.24-.98,6.52-.42.16.31,0,.77-.2,1.04-.46.63-1.35.56-3.12.64-.68.03-1.71.1-2.98.25-.06-.3-.11-.61-.15-.93-.03-.2-.05-.39-.06-.57Z"/>
      <path class="cls-4" d="M49.84,102.53c1.4-.18,4.54-.48,4.92.54.09.25.05.64-.5,1.3-.04.01-.08.02-.12.03-.69.17-1.65.24-2.89-.17-.25-.26-.51-.56-.77-.87-.23-.28-.44-.55-.63-.82Z"/>
      <path class="cls-16" d="M51.87,161l.32.32h-.64c.12-.08.21-.26.32-.32Z"/>
      <path class="cls-9" d="M54.44,72.57c-1.34.37-1.94-.84-2.81-1.21-2.24-.96-4.19-1.25-5.76.86l-1.03-1.04c1.03-2.15,2.25-2.63,4.58-2.43,1.85.16,5.59,1.48,5.02,3.82Z"/>
      <path class="cls-9" d="M41.8,58.48c3.16-.49,3.75,4.88.55,5.08-3,.2-3.19-4.68-.55-5.08Z"/>
      <path class="cls-9" d="M51.78,58.8c3.28-.68,3.4,4.48.54,4.76-3.27.32-3.04-4.24-.54-4.76Z"/>
      <path class="cls-6" d="M36.9,40.56c-.73-.21-1.5-.33-2.3-.33-4.66,0-8.43,3.79-8.43,8.46,0,1.79.56,3.46,1.51,4.82l9.21-12.96Z"/>
      <path class="cls-17" d="M36.9,40.56l-9.21,12.96c.24.31.57.7,1.03,1.07.54.43,1.06.71,1.45.87,3.41-4.3,6.82-8.6,10.24-12.89-.98-.93-2.18-1.63-3.51-2.01Z"/>
      <path class="cls-6" d="M68.18,41.09c-1.33-.43-2.51-.46-3.16-.46-.98,0-3.42-.02-5.67,1.68-3.3,2.51-3.33,6.59-3.33,6.92.01,1.57.46,3.03,1.19,4.27l10.97-12.41Z"/>
      <path class="cls-6" d="M71.54,43.19l-12.26,12.75c.29.24.59.45.9.64,1.99,1.22,3.96,1.25,4.84,1.25.98,0,3.26-.02,5.41-1.55,3.53-2.51,3.59-6.85,3.59-7.05,0-.19-.07-3.53-2.48-6.04Z"/>
      <path class="cls-17" d="M70.43,42.22c-.76-.54-1.52-.9-2.25-1.13l-10.97,12.41c.55.95,1.26,1.77,2.07,2.43l12.26-12.75c-.33-.34-.69-.66-1.11-.96Z"/>
      <path class="cls-3" d="M20.92,21.88c.7,1.29.61,2.52.56,2.97,2.57.13,5.14.25,7.7.38.06.05.14.1.22.14.1.05.19.1.27.13.29-.12.58-.24.87-.36-.16.33-.41.73-.8,1.1-.11.1-.21.19-.32.27-.72.59-1.8,1.54-3.4,1.97-1.34.36-2.79.53-4.01.78.74,2.03.5,3.98-.53,5.42-.78,1.08-2.36,2.44-4.07,2.23-.74-.09-1.33-.45-1.44-.52-1.2-.75-1.14-1.82-2.1-2.15-.74-.25-1.46.17-2.11.13-6.27-.38-6.49-9.53-.18-9.5-.07-.26-.54-2.22.72-3.89,1.16-1.53,2.92-1.7,3.45-1.75,1.44-.14,2.55.36,3.01.6.4.21,1.45.78,2.15,2.06Z"/>
      <path class="cls-3" d="M92.3,20.73c-.64,1.49-.44,2.85-.35,3.35-1.83.6-3.67,1.21-5.5,1.81-.34.25-.86.56-1.55.77-.41.12-.78.18-1.08.2.84.53,2.05,1.16,3.6,1.61,1.74.5,3.27.58,4.33.55-.62,2.31-.2,4.47,1.01,5.98.92,1.14,2.71,2.53,4.52,2.16.78-.16,1.38-.61,1.49-.69,1.21-.93,1.06-2.12,2.06-2.56.77-.34,1.56.07,2.25-.02,6.64-.92,6.11-11.1-.6-10.58.05-.3.39-2.51-1.09-4.27-1.36-1.61-3.25-1.66-3.82-1.68-1.54-.04-2.68.6-3.15.91-.41.27-1.48.99-2.11,2.46Z"/>
    </g>
  </g>
</svg>