<?xml version="1.0" encoding="UTF-8"?>
<svg id="Calque_2" data-name="Calque 2" xmlns="http://www.w3.org/2000/svg" viewBox="0 0 238.22 288.19">
  <defs>
    <style>
      .cls-1 {
        fill: #403028;
      }

      .cls-2 {
        fill: #dbc7bc;
      }

      .cls-3 {
        fill: tan;
      }

      .cls-4 {
        fill: #371e1a;
      }

      .cls-5 {
        fill: #a3775f;
      }

      .cls-6 {
        fill: #805e4c;
      }

      .cls-7 {
        fill: #231c18;
      }

      .cls-8 {
        fill: #5f473a;
      }
    </style>
  </defs>
  <g id="Calque_1-2" data-name="Calque 1">
    <g>
      <path class="cls-8" d="M228.64,8.59c2.31,2.76,4.05,5.54,5.37,8.25,13.8,28.24-10.47,63.84-14.42,69.48,0,0-17.88,32.74-23.7,38.48-.47.46-.49,1.43-.59,1.52-.72.65-6.31,2.42-7.61,2.48-11.64.5-19.58-13.78-16.19-24.14,2.32-7.08,13.83-23.42,14.05-28.91,2.24-2.8,4.1-7.15,5.59-10.56,1.79-4.07,6.18-13.89,6.57-17.85.31-3.15-2.3-5.65-3.54-8.55-1.59-3.71-3.75-10.15.2-13.02,4.42-3.21,8.3,3.06,9.46,1.84-3.56-6.94-1.56-15.49,4.63-20.07,6.04-4.48,14.55-4.05,20.18,1.07Z"/>
      <path class="cls-1" d="M24.41,3.8c5.19,5.24,6.56,12.47,6.98,15.88,2.55-.64,2.77-2.86,5.79-3.08,9.68-.71,5.58,13.73,3.64,18.91-.68,1.83-3.18,5.34-3.17,6.9.02,2.79,3.77,12.52,5.02,15.65,2.46,6.17,5.76,12.8,9.44,18.29-2.26,6.1-3.63,12.72-5.8,18.91-.34.97.13,2.16-1.51,1.81-3.22-2.13-3.3-1.31-6.41-1.23-.92.02-1.67-.54-2.75-.33-.69.14-1.85.28-3.94,2.17-1.27,1.15-3.16,3.15-4.8,6.31-.75-1.08-1.31-1.92-1.58-2.33C8.05,75.67-11.05,27.41,7.79,6.01c.82-.93,2.54-2.76,5.32-4.61C13.98.82,15.47.02,17.37,0c3.19-.03,5.44,2.17,7.04,3.8Z"/>
      <path d="M21.64,1.4v.61c-.12-.13-.99-.19-1.22-.61h1.22Z"/>
      <path class="cls-5" d="M73.4,39.51c.23-.27,3.41-3.97,7.64-7.18,5.33-4.05,11.21-6.51,13.83-7.58,2.28-.93,8.58-3.39,17.2-4.79,6.94-1.13,12.82-1.16,16.91-.96,8.35.4,15,2.03,19.2,3.29,3.76,1.13,5.93,1.79,8.79,3.33,6.19,3.34,9.84,7.75,12.41,10.91,3.65,4.5,5.62,8.36,7.33,11.74,3.62,7.14,5.42,13.32,6.87,18.37,1.19,4.14,1.88,7.31,2.21,8.79,7.23,33.13,10.68,58.22,10.68,58.22,1.26,9.13,1.96,15.63,2.69,22.3,1.31,12.1,1.49,15.92,1.56,17.55.25,6.17.52,12.63-.44,20.49-.94,7.75-2.13,17.53-8.31,28.05-4.99,8.5-11.09,13.81-14.37,16.62,0,0-5.91,5.07-12.43,8.62-14.67,8-31.04,6.93-56.43,4.98-13.95-1.07-22.02-2.85-38.15-6.41-5.78-1.28-12.67-2.95-19.99-7.87-5.76-3.87-9.3-8.09-10.62-9.75-4.43-5.56-6.47-10.79-7.75-14.12-.33-.86-1.85-4.88-2.87-10-3.02-15.02-.41-32.51,1.17-41.94,2.64-15.76,5.5-27.55,6.08-29.9,6.98-28.47,9.89-42.84,15.49-56.6,0,0,8.08-19.82,20.49-35.19.4-.5.81-.98.81-.98Z"/>
      <path class="cls-8" d="M114.71,252.72s10.6,1.03,21.1.85c13.6-.24,20.08-2.39,22.05-3.09,3.17-1.12,5.7-2.36,7.45-3.3-.16.58-.37,1.2-.64,1.86-.34.83-.7,1.56-1.06,2.18,6.91-.53,10.66-8.06,18.01-4.57.17.08,2.9,1.97,3.04,2.09,1.36,1.17,9.03,12.7,10.13,14.88,7.12,14.13-5.55,14.66-14.31,7.82-13.52,10.45-31.82,19.11-49.3,16.19-9.17-1.53-13.11-6.35-14.04-7.41-7.66-8.76-2.43-27.49-2.43-27.49Z"/>
      <path class="cls-1" d="M29.56,208.57c1.62-.35,1.21.81,1.5,1.82,3.23,11.31,10.16,21.44,19.82,27.43-8.03,1.66-4.97,8.88-3.35,14.62,3.35,11.91,11.06,19.49-5.66,24.81-7.23,2.3-28.15,5.62-32.7-1.68-3.71-5.94,4.01-14.36,10.02-15.21-8.86-16.68-13.43-37.46,5.06-49.47,1.11-.72,4.97-2.02,5.3-2.32Z"/>
      <path class="cls-2" d="M47.85,100.18c1.56,2.87,1.36,5.6,1.24,6.6l16.42,1.25c.19.74.92,1.64,1.22,2.44-3.63,4.64-11.04,4.97-16.45,6.1,1.65,4.5,1.11,8.84-1.18,12.03-1.72,2.41-5.23,5.42-9.04,4.96-1.65-.2-2.96-1.01-3.19-1.15-2.66-1.66-2.52-4.05-4.67-4.78-1.65-.56-3.24.38-4.68.29-13.91-.85-14.4-21.15-.4-21.1-.15-.58-1.2-4.93,1.61-8.64,2.57-3.4,6.48-3.78,7.66-3.89,3.2-.31,5.66.79,6.68,1.33.89.47,3.23,1.74,4.77,4.57Z"/>
      <path class="cls-8" d="M170.93,38.56c-2.87-3.74-10.47-11.58-14.62-13.41,3.21-8.97,9.96-26.9,22.57-18,10.77,7.6,2.34,26.87-7.95,31.41Z"/>
      <path class="cls-1" d="M110.61,20.28c-5.44.92-15.73,4.27-20.72,6.7-9.05-21.53,20.63-33.33,20.72-6.7Z"/>
      <path class="cls-3" d="M64.52,230.83c-39.38-19.09-26.07-99.84,23.87-97.84,66.37,2.66,63.7,120.14-13.63,101.37-3.33-.81-7.17-2.04-10.24-3.53Z"/>
      <path class="cls-6" d="M66.73,110.47c-.3-.8-1.03-1.7-1.22-2.44-3.32-13.1,2.95-34.38,14.01-42.65.59-.44,4.25-2.73,4.87-3.05,7.41-3.69,18.14-4.55,25.92-1.85,19.93,6.92,19.34,31.29,12.32,47.71-6.86,16.04-26.77,19.89-42.17,15.04-7.67-2.42-11.01-5.46-13.75-12.76ZM79.02,75.03c.25.41,8.27,3.8,8.75,3.8,5.03-.03,2.84-8.44-4.27-8.64-2.73-.08-6.09,2.22-4.48,4.84ZM111.64,74.08c-3.21-3.76-14.04-1.3-13.12,3.63.8,4.3,4.7,1.51,6.94,1.1,1.83-.33,10.03-.21,6.18-4.73ZM83.01,98.98l-1.64,2.03c3.74,6.86,1.85,4.54-.9,8.88-1.03,1.63-1.65,4.94.66,5.36,1.52.28,7.31-6.54,7.52-8.19.3-2.33-2.68-8.92-5.65-8.09Z"/>
      <path class="cls-7" d="M133.16,68.43l10.32,2.77c2.83.55,4.65,2.06,4.59,3.26-.02.34-.2.95-.63,1.47,0,0-.49.6-1.33.91-2.62.99-10.06-1.68-10.06-1.68-7.52-2.7-10.24-2.39-10.72-4.32-.14-.57-.31-1.85,2.03-4.24,4.03-4.11,15.44-8.88,21.04-7.05,2.18.71,2.66,3.36.78,4.5-2.67,1.63-12.54,1.68-16.04,4.37Z"/>
      <path class="cls-8" d="M134.81,41.75c2.89-.62,5.02-.04,5.52,3.12-.2,2.25-7.35,5.5-9.57,6.85s-12.14,9.88-11.62,1.82c.2-3.14,12.65-11.14,15.67-11.79Z"/>
      <path class="cls-1" d="M82.41,39.27c3.1-.47,14.27,9.28,14.64,12.47.21,1.78-1.33,3.84-3.2,3.83-2.17-.01-6.95-5.84-8.82-7.58-2.05-1.9-6.41-3.21-5.39-6.57.28-.91,1.89-2.02,2.78-2.16Z"/>
      <path class="cls-7" d="M84.4,62.33c-.63.31-4.29,2.61-4.87,3.05-1.51-1.97-12.53-6.07-8.53-9.45,3.34-2.82,10.68,4.3,13.41,6.4Z"/>
      <path class="cls-4" d="M83.01,98.98c2.96-.84,5.95,5.76,5.65,8.09-.21,1.64-6,8.47-7.52,8.19-2.32-.43-1.7-3.73-.66-5.36,2.75-4.33,4.64-2.02.9-8.88l1.64-2.03Z"/>
      <path class="cls-4" d="M111.64,74.08c3.85,4.52-4.35,4.4-6.18,4.73-2.25.41-6.14,3.2-6.94-1.1-.92-4.93,9.91-7.39,13.12-3.63Z"/>
      <path class="cls-4" d="M79.02,75.03c-1.61-2.62,1.75-4.91,4.48-4.84,7.11.2,9.31,8.61,4.27,8.64-.48,0-8.5-3.39-8.75-3.8Z"/>
      <path class="cls-7" d="M79.53,65.38c-1.15.21-2.1.42-2.8.58-1.22.28-2.26.53-3.57.97-1.01.34-1.83.68-2.39.92-.28.12-.53.45-.69.87-.34.89.06,2.12.83,2.49.52.24,1.19-.04,2.55-.61.61-.26,1.1-.51,1.42-.68.5-.51,1.01-1.02,1.51-1.53l1.84-1.81,1.3-1.2Z"/>
    </g>
  </g>
</svg>