<svg xmlns="http://www.w3.org/2000/svg" width="256" height="397" fill="none" viewBox="0 0 256 397">
  <g clip-path="url(#a)">
    <path fill="#5F473A" d="M235.357 116.59c2.31 2.76 4.05 5.54 5.37 8.25 13.8 28.24-10.47 63.84-14.42 69.48 0 0-17.88 32.74-23.7 38.48-.47.46-.49 1.43-.59 1.52-.72.65-6.31 2.42-7.61 2.48-11.64.5-19.58-13.78-16.19-24.14 2.32-7.08 13.83-23.42 14.05-28.91 2.24-2.8 4.1-7.15 5.59-10.56 1.79-4.07 6.18-13.89 6.57-17.85.31-3.15-2.3-5.65-3.54-8.55-1.59-3.71-3.75-10.15.2-13.02 4.42-3.21 8.3 3.06 9.46 1.84-3.56-6.94-1.56-15.49 4.63-20.07 6.04-4.48 14.55-4.05 20.18 1.07v-.02Z"/>
    <path fill="#403028" d="M31.127 111.8c5.19 5.24 6.56 12.47 6.98 15.88 2.55-.64 2.77-2.86 5.79-3.08 9.68-.71 5.58 13.73 3.64 18.91-.68 1.83-3.18 5.34-3.17 6.9.02 2.79 3.77 12.52 5.02 15.65 2.46 6.17 5.76 12.8 9.44 18.29-2.26 6.1-3.63 12.72-5.8 18.91-.34.97.13 2.16-1.51 1.81-3.22-2.13-3.3-1.31-6.41-1.23-.92.02-1.67-.54-2.75-.33-.69.14-1.85.28-3.94 2.17-1.27 1.15-3.16 3.15-4.8 6.31-.75-1.08-1.31-1.92-1.58-2.33-17.27-25.99-36.37-74.25-17.53-95.65.82-.93 2.54-2.76 5.32-4.61.87-.58 2.36-1.38 4.26-1.4 3.19-.03 5.44 2.17 7.04 3.8Z"/>
    <path fill="#000" d="M28.357 109.4v.61c-.12-.13-.99-.19-1.22-.61h1.22Z"/>
    <path fill="#A3775F" d="M80.117 147.51c.23-.27 3.41-3.97 7.64-7.18 5.33-4.05 11.21-6.51 13.83-7.58 2.28-.93 8.58-3.39 17.2-4.79a80.841 80.841 0 0 1 16.91-.96c8.35.4 15 2.03 19.2 3.29 3.76 1.13 5.93 1.79 8.79 3.33 6.19 3.34 9.84 7.75 12.41 10.91 3.65 4.5 5.62 8.36 7.33 11.74 3.62 7.14 5.42 13.32 6.87 18.37 1.19 4.14 1.88 7.31 2.21 8.79 7.23 33.13 10.68 58.22 10.68 58.22 1.26 9.13 1.96 15.63 2.69 22.3 1.31 12.1 1.49 15.92 1.56 17.55.25 6.17.52 12.63-.44 20.49-.94 7.75-2.13 17.53-8.31 28.05-4.99 8.5-11.09 13.81-14.37 16.62 0 0-5.91 5.07-12.43 8.62-14.67 8-31.04 6.93-56.43 4.98-13.95-1.07-22.02-2.85-38.15-6.41-5.78-1.28-12.67-2.95-19.99-7.87-5.76-3.87-9.3-8.09-10.62-9.75-4.43-5.56-6.47-10.79-7.75-14.12-.33-.86-1.85-4.88-2.87-10-3.02-15.02-.41-32.51 1.17-41.94 2.64-15.76 5.5-27.55 6.08-29.9 6.98-28.47 9.89-42.84 15.49-56.6 0 0 8.08-19.82 20.49-35.19.4-.5.81-.98.81-.98v.01Z"/>
    <path fill="#5F473A" d="M121.427 360.72s10.6 1.03 21.1.85c13.6-.24 20.08-2.39 22.05-3.09a53.13 53.13 0 0 0 7.45-3.3c-.16.58-.37 1.2-.64 1.86-.34.83-.7 1.56-1.06 2.18 6.91-.53 10.66-8.06 18.01-4.57.17.08 2.9 1.97 3.04 2.09 1.36 1.17 9.03 12.7 10.13 14.88 7.12 14.13-5.55 14.66-14.31 7.82-13.52 10.45-31.82 19.11-49.3 16.19-9.17-1.53-13.11-6.35-14.04-7.41-7.66-8.76-2.43-27.49-2.43-27.49v-.01Z"/>
    <path fill="#403028" d="M36.277 316.57c1.62-.35 1.21.81 1.5 1.82 3.23 11.31 10.16 21.44 19.82 27.43-8.03 1.66-4.97 8.88-3.35 14.62 3.35 11.91 11.06 19.49-5.66 24.81-7.23 2.3-28.15 5.62-32.7-1.68-3.71-5.94 4.01-14.36 10.02-15.21-8.86-16.68-13.43-37.46 5.06-49.47 1.11-.72 4.97-2.02 5.3-2.32h.01Z"/>
    <path fill="#DBC7BC" d="M54.567 208.18c1.56 2.87 1.36 5.6 1.24 6.6l16.42 1.25c.19.74.92 1.64 1.22 2.44-3.63 4.64-11.04 4.97-16.45 6.1 1.65 4.5 1.11 8.84-1.18 12.03-1.72 2.41-5.23 5.42-9.04 4.96-1.65-.2-2.96-1.01-3.19-1.15-2.66-1.66-2.52-4.05-4.67-4.78-1.65-.56-3.24.38-4.68.29-13.91-.85-14.4-21.15-.4-21.1-.15-.58-1.2-4.93 1.61-8.64 2.57-3.4 6.48-3.78 7.66-3.89 3.2-.31 5.66.79 6.68 1.33.89.47 3.23 1.74 4.77 4.57l.01-.01Z"/>
    <path fill="#5F473A" d="M177.647 146.56c-2.87-3.74-10.47-11.58-14.62-13.41 3.21-8.97 9.96-26.9 22.57-18 10.77 7.6 2.34 26.87-7.95 31.41Z"/>
    <path fill="#403028" d="M117.327 128.28c-5.44.92-15.73 4.27-20.72 6.7-9.05-21.53 20.63-33.33 20.72-6.7Z"/>
    <path fill="tan" d="M71.237 338.83c-39.38-19.09-26.07-99.84 23.87-97.84 66.37 2.66 63.7 120.14-13.63 101.37-3.33-.81-7.17-2.04-10.24-3.53Z"/>
    <path fill="#805E4C" d="M73.447 218.47c-.3-.8-1.03-1.7-1.22-2.44-3.32-13.1 2.95-34.38 14.01-42.65.59-.44 4.25-2.73 4.87-3.05 7.41-3.69 18.14-4.55 25.92-1.85 19.93 6.92 19.34 31.29 12.32 47.71-6.86 16.04-26.77 19.89-42.17 15.04-7.67-2.42-11.01-5.46-13.75-12.76h.02Zm12.29-35.44c.25.41 8.27 3.8 8.75 3.8 5.03-.03 2.84-8.44-4.27-8.64-2.73-.08-6.09 2.22-4.48 4.84Zm32.62-.95c-3.21-3.76-14.04-1.3-13.12 3.63.8 4.3 4.7 1.51 6.94 1.1 1.83-.33 10.03-.21 6.18-4.73Zm-28.63 24.9-1.64 2.03c3.74 6.86 1.85 4.54-.9 8.88-1.03 1.63-1.65 4.94.66 5.36 1.52.28 7.31-6.54 7.52-8.19.3-2.33-2.68-8.92-5.65-8.09l.01.01Z"/>
    <path fill="#231C18" d="m139.877 176.43 10.32 2.77c2.83.55 4.65 2.06 4.59 3.26-.02.34-.2.95-.63 1.47 0 0-.49.6-1.33.91-2.62.99-10.06-1.68-10.06-1.68-7.52-2.7-10.24-2.39-10.72-4.32-.14-.57-.31-1.85 2.03-4.24 4.03-4.11 15.44-8.88 21.04-7.05 2.18.71 2.66 3.36.78 4.5-2.67 1.63-12.54 1.68-16.04 4.37l.02.01Z"/>
    <path fill="#5F473A" d="M141.527 149.75c2.89-.62 5.02-.04 5.52 3.12-.2 2.25-7.35 5.5-9.57 6.85-2.22 1.35-12.14 9.88-11.62 1.82.2-3.14 12.65-11.14 15.67-11.79Z"/>
    <path fill="#403028" d="M89.127 147.27c3.1-.47 14.27 9.28 14.64 12.47.21 1.78-1.33 3.84-3.2 3.83-2.17-.01-6.95-5.84-8.82-7.58-2.05-1.9-6.41-3.21-5.39-6.57.28-.91 1.89-2.02 2.78-2.16l-.01.01Z"/>
    <path fill="#231C18" d="M91.117 170.33c-.63.31-4.29 2.61-4.87 3.05-1.51-1.97-12.53-6.07-8.53-9.45 3.34-2.82 10.68 4.3 13.41 6.4h-.01Z"/>
    <path fill="#371E1A" d="M89.727 206.98c2.96-.84 5.95 5.76 5.65 8.09-.21 1.64-6 8.47-7.52 8.19-2.32-.43-1.7-3.73-.66-5.36 2.75-4.33 4.64-2.02.9-8.88l1.64-2.03-.01-.01Zm28.63-24.9c3.85 4.52-4.35 4.4-6.18 4.73-2.25.41-6.14 3.2-6.94-1.1-.92-4.93 9.91-7.39 13.12-3.63Zm-32.62.95c-1.61-2.62 1.75-4.91 4.48-4.84 7.11.2 9.31 8.61 4.27 8.64-.48 0-8.5-3.39-8.75-3.8Z"/>
    <path fill="#231C18" d="M86.247 173.38c-1.15.21-2.1.42-2.8.58-1.22.28-2.26.53-3.57.97-1.01.34-1.83.68-2.39.92-.28.12-.53.45-.69.87-.34.89.06 2.12.83 2.49.52.24 1.19-.04 2.55-.61.61-.26 1.1-.51 1.42-.68.5-.51 1.01-1.02 1.51-1.53l1.84-1.81 1.3-1.2Z"/>
  </g>
  <path fill="#F9D25F" d="M172.721 55.302c1.443-19.958 17.158-33.433 31.822-44.252 8.331-6.439 18.841-7.706 28.52-5.102.766.42 1.56.887 2.311 1.405 1.927 1.316 3.92 2.578 3.835 5.226-.014.679-.259 1.692-.392 2.358-2.054 10.126-8.414 19.257-17.674 23.618-7.853 3.685-16.865 3.132-24.876 6.346-10.522 4.224-17.155 13.475-20.99 24.017-.097.25-.17.499-.244.747-1.847-4.592-2.669-9.61-2.335-14.361l.023-.002Z"/>
  <path fill="#F4C245" d="M233.084 5.922c-9.7-2.578-20.212-1.335-28.519 5.102-14.688 10.821-30.38 24.294-31.822 44.252-.334 4.751.488 9.769 2.335 14.361-.219.77-.435 1.563-.709 2.24-.452 1.079-1.801 1.313-2.561.408-1.154-1.381-2.421-5.247-2.853-7.028-4.148-17.697 7.445-38.141 19.558-49.837 11.415-11.032 29.978-17.552 44.594-9.5l-.023.002Z"/>
  <path fill="#F9D25F" d="M189.374 83.432c-3.796-.53-8.308-2.017-11.261-4.312-2.573-1.989-1.826-4.062-1.013-6.746 2.937-9.716 8.541-18.857 17.578-23.634 7.975-4.204 17.282-3.506 25.576-6.72 7.335-2.843 13.266-8.353 17.127-15.216-.872 10.997-3.904 21.835-9.476 32.208-8.409 15.358-22.931 22.242-38.508 24.418l-.023.002Z"/>
  <path fill="#FFE07D" d="M241.245 16.889a1.466 1.466 0 0 1 1.06-.864c1.253-.25 1.666.732 2.147 1.685 1.946 3.81 3.044 8.465 3.239 12.76.575 12.788-5.365 24.96-14.067 33.73-10.877 10.963-27.472 20.976-43.321 19.348a11.9 11.9 0 0 1-.929-.116c15.576-2.176 30.122-9.062 38.508-24.418 5.572-10.373 8.604-21.212 9.475-32.208a37.893 37.893 0 0 0 2.843-6.342c.358-1.071.63-2.62 1.045-3.575Z"/>
  <path fill="#D3A648" d="M173.024 74.968a4.132 4.132 0 0 0 1.302-.23c-.295 1.55.125 3.187.987 4.47.783 1.17 2.028 1.962 3.221 2.686 9.44 5.676 21.236 4.543 31.14.831 1.19-.438 3.13-1.497 4.28-1.57 2.021-.096 4.683.141 6.708.383 11.687 1.516 21.142 9.904 25.466 20.974.838 2.11 1.49 3.702.348 5.566-27.559 7.831-64.205-4.383-73.431-33.136l-.021.026Z"/>
  <path fill="#AD7D28" d="M173.024 74.968c9.226 28.753 45.872 40.967 73.431 33.136-.124.204-.27.434-.442.642-3.46 4.311-9.181 7.551-14.393 8.981-12.754 3.49-26.185-.544-36.712-8.212-12.084-8.797-22.696-21.981-25.599-37.215l.997 1.49c.754.834 1.706 1.214 2.72 1.202l-.002-.024Z"/>
  <path fill="#F9D25F" d="M230.827 69.667c.791-.696 1.582-1.392 2.347-2.11 1.64-1.543 3.273-3.18 4.756-4.904.495-.574.954-1.29 1.45-1.84.043-.053.06-.127.156-.11 6.928 6.952 12.094 16.522 12.932 26.528-5.806-7.361-13.298-13.152-21.641-17.564Z"/>
  <path fill="#D3A648" d="M252.468 87.23c.242 2.887.132 5.803-.428 8.683-.182.936-.847 3.971-1.359 4.619-.767.985-2.049.608-2.606-.411-.473-.857-.839-1.843-1.29-2.726-5.271-9.973-14.5-17.072-25.528-18.619-.836-.124-1.664-.151-2.498-.251-.118.01-.114.058-.106-.136 4.346-2.472 8.439-5.43 12.219-8.75 8.298 4.44 15.768 10.257 21.596 17.592Z"/>
  <path fill="#FFE07D" d="m147.251 68.343-2.531-30.22a7.616 7.616 0 0 0-8.226-6.955l-5.482.459 2.629 31.392c.986.224 1.995.446 2.983.694a30.663 30.663 0 0 1 10.627 4.63Z"/>
  <path fill="#F4C245" d="M144.171 122.554a7.615 7.615 0 0 0 6.955-8.226l-.954-11.385c-4.261-2.427-8.861-4.118-13.578-4.95l2.095 25.02 5.482-.459Z"/>
  <path fill="#F9D25F" d="M147.251 68.343a30.663 30.663 0 0 0-10.627-4.63c-.988-.248-1.997-.47-2.983-.694l2.931 35c4.694.833 9.318 2.522 13.579 4.949l-2.9-34.625Z"/>
  <path fill="#FFE07D" d="M128.28 26.052a7.615 7.615 0 0 0-8.226-6.955l-4.334.363c-1.406.118-2.534.165-2.416 1.571l3.296 39.357a126.83 126.83 0 0 1 14.733 2.116l-3.053-36.452Z"/>
  <path fill="#F9D25F" d="m134.278 97.668-2.945-35.164c-4.92-1.003-9.84-1.723-14.733-2.116l3.096 36.968c3.179-.077 6.363-.084 9.582.047a39.89 39.89 0 0 1 5 .265Z"/>
  <path fill="#F4C245" d="m125.664 138.188 4.334-.363a7.615 7.615 0 0 0 6.955-8.226l-2.675-31.93a39.289 39.289 0 0 0-5-.266c-3.243-.13-6.427-.122-9.582-.047l3.273 39.076c.118 1.406 1.289 1.874 2.695 1.756Z"/>
  <path fill="#D3A648" d="M116.517 131.217 107.96 29.051l-.155-1.85c-.032-.375-.156-2.417 1.347-4.194a5.736 5.736 0 0 1 3.911-2.027l.258-.021 9.67 115.448-.258.022a5.73 5.73 0 0 1-6.195-5.238l-.021.026Z"/>
  <path fill="#FFE07D" d="m110.555 60.045-2.564-30.619-26.747 8.516 2.019 24.106c8.972-1.6 18.089-2.317 27.292-2.003Z"/>
  <path fill="#F9D25F" d="m113.703 97.622-3.148-37.577c-9.203-.314-18.32.402-27.292 2.003l3.326 39.709c8.862-2.064 17.87-3.526 27.114-4.135Z"/>
  <path fill="#F4C245" d="m116.513 131.17-2.81-33.548c-9.244.61-18.23 2.046-27.114 4.135l2.156 25.746 27.768 3.667Z"/>
  <path fill="#FFE07D" d="m78.582 39.108-11.735 2.706 1.978 23.614a136.522 136.522 0 0 1 11.72-2.87l-1.963-23.45Z"/>
  <path fill="#F9D25F" d="M80.546 62.559a136.53 136.53 0 0 0-11.721 2.869l3.37 40.224a212.625 212.625 0 0 1 11.688-3.244l-3.337-39.85Z"/>
  <path fill="#F4C245" d="m85.873 126.163-1.99-23.755c-3.906.964-7.8 2.069-11.689 3.244l1.59 18.976 12.089 1.535Z"/>
  <path fill="#FFE07D" d="m60.74 68.04-1.48-17.664-46.233 12.742 2.496 29.8a54.04 54.04 0 0 1 3.726-2.837c12.764-9.279 26.759-16.82 41.49-22.041Z"/>
  <path fill="#F9D25F" d="m64.109 108.264-3.37-40.224C46.009 73.26 31.99 80.804 19.25 90.08a44.96 44.96 0 0 0-3.726 2.836l1.79 21.366 25.066 2.123c.226-.113.43-.225.681-.316 7.055-2.809 14.05-5.471 21.049-7.826Z"/>
  <path fill="#F4C245" d="M64.109 108.264c-6.996 2.379-13.994 5.017-21.049 7.826-.228.089-.453.226-.681.316l22.571 1.908-.841-10.05Z"/>
  <path fill="#D3A648" d="m13.933 105.483-2.998-35.796a1.599 1.599 0 0 0-1.727-1.46l-3.584.3a1.599 1.599 0 0 0-1.46 1.727l2.999 35.796c.073.88.846 1.534 1.726 1.46l3.584-.3a1.6 1.6 0 0 0 1.46-1.727Zm50.835 11.501-5.54-66.157c-.387-4.615 3.049-8.654 7.64-9.039l6.94 82.861c-4.614.387-8.653-3.05-9.038-7.641l-.002-.024Zm24.182 12.673-7.83-93.474a1.41 1.41 0 0 0-2.811.235l7.829 93.474a1.41 1.41 0 0 0 2.811-.235Zm47.61-4.743-7.905-94.387 1.031-.087a1.254 1.254 0 0 1 1.345 1.138l7.662 91.482a1.675 1.675 0 0 1-1.524 1.803l-.609.051Z"/>
  <defs>
    <clipPath id="a">
      <path fill="#fff" d="M6.717 108h238.22v288.19H6.717z"/>
    </clipPath>
  </defs>
</svg>
