<?xml version="1.0" encoding="UTF-8"?>
<svg id="Calque_2" data-name="Calque 2" xmlns="http://www.w3.org/2000/svg" viewBox="0 0 146.5 105.31">
  <defs>
    <style>
      .cls-1 {
        fill: #403028;
      }

      .cls-2 {
        fill: #a3775f;
      }

      .cls-3 {
        fill: #805e4c;
      }

      .cls-4 {
        fill: #5f473a;
      }
    </style>
  </defs>
  <g id="Calque_1-2" data-name="Calque 1">
    <g>
      <g>
        <path class="cls-3" d="M84.97,98.93c24.8-4,40.01-25.6,52.01-45.61,7.19-11.38,7.65-25,3.4-37.17-.62-.95-1.27-1.89-1.99-2.81-1.84-2.34-3.64-4.74-6.95-4.37-.83.09-2.08.51-2.91.76-12.45,3.72-23.2,12.86-27.67,25.21-3.79,10.48-2.15,21.99-5.32,32.62-4.16,13.97-15.04,23.46-27.84,29.52-.29.14-.6.27-.91.4,5.92,1.86,12.3,2.38,18.19,1.45Z"/>
        <path class="cls-4" d="M140.38,16.15c4.25,12.17,3.79,25.79-3.4,37.17-12,20-27.2,41.61-52.01,45.61-5.89.93-12.27.41-18.19-1.45-.93.38-1.92.73-2.72,1.16-1.31.71-1.46,2.45-.24,3.32,1.84,1.32,6.8,2.55,9.09,2.9,22.55,3.42,46.91-13.66,60.25-30.46,12.58-15.85,18.79-40.36,7.22-58.26Z"/>
        <path class="cls-3" d="M48.06,80.59c1.07,4.81,3.4,10.46,6.57,14.01,2.76,3.09,5.28,1.91,8.54.58,11.84-4.83,22.7-12.99,27.7-25.1,4.42-10.7,2.58-22.56,5.73-33.55,2.78-9.71,9.06-17.93,17.23-23.61-13.65,2.31-26.89,7.36-39.27,15.62-18.33,12.44-25.41,31.84-26.5,52.07Z"/>
        <path class="cls-2" d="M125.83,6.86c.53-.29.9-.85.97-1.45.18-1.62-1.09-2.06-2.32-2.58C119.51.73,113.56-.19,108.18.03c-16.06.65-30.66,9.57-40.7,21.68-12.56,15.15-23.36,37.52-19.66,57.69.07.39.16.79.24,1.19,1.09-20.23,8.17-39.63,26.5-52.07,12.38-8.26,25.62-13.31,39.27-15.62,2.4-1.67,4.95-3.12,7.63-4.32,1.31-.59,3.2-1.09,4.36-1.72Z"/>
      </g>
      <g>
        <path class="cls-4" d="M60.34,100.66c-.03-.54.01-1.11.15-1.68-1.9.54-4,.18-5.7-.79-1.54-.88-2.67-2.4-3.68-3.84-8.08-11.51-7.91-26.77-4.29-39.87.43-1.56,1.55-4.19,1.5-5.67-.09-2.6-.65-6-1.19-8.56-3.13-14.83-14.6-26.07-28.9-30.43-2.73-.83-4.78-1.52-7.01.14-6.91,36.23,12.2,81.96,49.11,90.7Z"/>
        <path class="cls-1" d="M60.34,100.66C23.43,91.92,4.32,46.19,11.23,9.96c-.25.19-.5.39-.76.64C5.44,15.49,1.99,23.21.75,30.06c-3.03,16.76,3.43,33.56,14.11,46.23,12.27,14.55,29.86,26.78,49.22,28.86l-1.96-1.13c-1.12-.88-1.7-2.06-1.77-3.37Z"/>
        <path class="cls-3" d="M60.93,25.9c.78-1.09,1.58-2.18,2.4-3.24,1.76-2.28,3.64-4.54,5.63-6.63.67-.71,1.5-1.37,2.15-2.06.06-.07.16-.11.14-.22C61.79,5.61,49.29,0,36.69,0c9.8,6.67,17.85,15.66,24.24,25.89Z"/>
        <path class="cls-4" d="M36.69,0c-3.62,0-7.26.47-10.83,1.47-1.17.33-4.87,1.51-5.63,2.25-1.14,1.1-.55,2.69.8,3.3,1.11.5,2.4.87,3.55,1.37,13.01,5.7,22.87,16.77,25.95,30.78.23,1.06.37,2.13.57,3.19.03.14-.06.16.17.14,2.62-5.83,5.92-11.4,9.65-16.62C54.54,15.67,46.49,6.68,36.69,0Z"/>
      </g>
    </g>
  </g>
</svg>