<?xml version="1.0" encoding="UTF-8"?>
<svg id="Calque_2" data-name="Calque 2" xmlns="http://www.w3.org/2000/svg" viewBox="0 0 143.36 135.33">
  <defs>
    <style>
      .cls-1 {
        fill: #403028;
      }

      .cls-2 {
        fill: #e2d2c9;
        stroke: #c5a795;
      }

      .cls-2, .cls-3 {
        stroke-miterlimit: 10;
      }

      .cls-4 {
        fill: tan;
      }

      .cls-3 {
        fill: #ecf0db;
        stroke: #bdcd93;
      }

      .cls-5 {
        fill: #a3775f;
      }

      .cls-6 {
        fill: #f8f5f2;
      }

      .cls-7 {
        fill: #231c18;
      }

      .cls-8 {
        fill: #81504d;
      }

      .cls-9 {
        fill: #5f473a;
      }
    </style>
  </defs>
  <g id="Calque_1-2" data-name="Calque 1">
    <g>
      <g>
        <path class="cls-8" d="M82.52,0H5.05C2.26,0,0,2.26,0,5.05v57.23c0,1.35.53,2.58,1.4,3.48L85.46.95c-.83-.6-1.84-.95-2.95-.95Z"/>
        <path class="cls-7" d="M85.46.95L1.4,65.76c.92.96,2.21,1.57,3.65,1.57h77.47c2.79,0,5.05-2.26,5.05-5.05V5.05c0-1.69-.83-3.18-2.1-4.1Z"/>
        <rect class="cls-6" x="3.71" y="3.33" width="80.82" height="59.98" rx="6.64" ry="6.64"/>
        <rect class="cls-7" x="11.3" y="12.04" width=".78" height="44.29"/>
        <rect class="cls-8" x="43.55" y="23.36" width=".78" height="65.29" transform="translate(99.94 12.06) rotate(90)"/>
        <rect class="cls-3" x="16.15" y="39.19" width="5.87" height="15.2" rx="1.09" ry="1.09"/>
        <rect class="cls-2" x="16.21" y="22.58" width="5.87" height="15.2" rx="1.09" ry="1.09"/>
        <rect class="cls-3" x="24.75" y="35.41" width="5.87" height="19.05" rx="1.09" ry="1.09"/>
        <rect class="cls-3" x="33.13" y="39.24" width="5.87" height="15.2" rx="1.09" ry="1.09"/>
        <rect class="cls-2" x="33.19" y="22.63" width="5.87" height="15.2" rx="1.09" ry="1.09"/>
        <rect class="cls-3" x="41.73" y="35.44" width="5.87" height="19.05" rx="1.09" ry="1.09"/>
        <rect class="cls-2" x="41.79" y="14.82" width="5.87" height="19.05" rx="1.09" ry="1.09"/>
        <rect class="cls-3" x="50.35" y="39.19" width="5.87" height="15.2" rx="1.09" ry="1.09"/>
        <rect class="cls-3" x="58.95" y="35.41" width="5.87" height="19.05" rx="1.09" ry="1.09"/>
        <rect class="cls-2" x="59.01" y="14.79" width="5.87" height="19.05" rx="1.09" ry="1.09"/>
        <rect class="cls-3" x="67.42" y="39.18" width="5.87" height="15.2" rx="1.09" ry="1.09"/>
        <rect class="cls-2" x="67.48" y="22.57" width="5.87" height="15.2" rx="1.09" ry="1.09"/>
        <rect class="cls-2" x="50.35" y="16.83" width="5.87" height="20.99" rx="1.09" ry="1.09"/>
        <rect class="cls-2" x="24.91" y="16.57" width="5.87" height="17.02" rx="1.09" ry="1.09"/>
      </g>
      <path class="cls-5" d="M132.4,63.96c-1.97-11.06-2.61-23.21-8.53-32.99-.49-.81-1.07-2.09-2.12-3.49,0-.02-.02-.04-.04-.05-3.51-4.66-8.3-6.95-11.6-8.12-.99-.35-1.85-.6-2.5-.78-8.57-2.46-15.99-.63-20.04.62-.4.11-.77.24-1.1.34-.02,0-.03,0-.05.02-.59.19-1.22.4-1.89.63-3.28,1.14-7.42,2.89-11.15,6.47-.02,0-.02.02-.03.03-.43.41-.85.84-1.27,1.31-2.14,2.38-3.52,4.82-4.59,7.4-.86,2.05-1.53,4.2-2.24,6.47-.14.47-.28.94-.42,1.42-.84,3.02-1.49,6.35-2.35,11.23-.07.37-.14.76-.2,1.15-.05.25-.09.51-.14.78-.14.76-.27,1.56-.42,2.4-.21,1.17-.4,2.37-.52,3.17-.1.59-.16.96-.16.96-.02.13-.05.27-.06.4-.2,1.23-.37,2.37-.53,3.42-.03.2-.06.4-.08.6-.12.84-.24,1.66-.36,2.49-.24.29-.67.71-1.29.92-1.7.56-2.96-1.1-4.79-.81-.81.13-1.38.58-2.32,1.57-.08.08-.15.15-.21.22-.1.1-.19.21-.28.32-2.7,3.04-4.56,7.5-4.21,11.56.04.03.02.46.27.81.05.08.12.17.22.24,2.74,1.95,7.35,2.74,8.29,3.78h0c.1.11.15.23.17.34,0,.03,0,.14,0,.33,0,.05,0,.22,0,.35v.31c0,.3,0,.55,0,.74,0,4.05.7,8.17,2.13,11.98,1.35,3.61,3.36,6.95,6.05,9.71,1.26,1.3,2.67,2.46,4.23,3.48,5.58,3.61,12.51,5.2,18.97,5.86,1.27.13,2.51.27,3.79.34,1.53.08,3.81.16,6.58.17,2.88,0,5.8-.08,7.21-.17,4.3-.28,10.2-1.57,15.78-4.77h0c.31-.19.62-.37.93-.56.13-.08.27-.16.4-.24.23-.14.46-.3.68-.45.18-.12.37-.25.56-.39.34-.24.68-.49,1.03-.75.33-.24.65-.5.96-.76,4.74-3.93,7.9-7.62,9.65-13.79,3.57-12.53-.23-23.99-2.41-36.2Z"/>
      <path class="cls-9" d="M87.23,121.53c-.11,1.91.16,3.98,0,5.86-.15,1.75-.12,2.53-.57,3.39-.27.52-.91,1.52-3.02,2.65-1.32.71-3.81,1.79-7.43,1.89-3.04.07-5.41-.48-6.92-.95-2.09-.65-3.83-1.22-4.66-2.87-.64-1.28-.39-2.53-.34-2.77.38-1.75,1.91-3.16,3.93-3.65l.05-9.43c5.58,3.61,12.51,5.2,18.96,5.86Z"/>
      <path class="cls-1" d="M123.18,131.24c-2.95,3.88-8.92,3.68-11.55,3.59-2.12-.07-7.62-.26-9.39-3.66-.17-.32-1.26-2.52-.13-4.31.81-1.28,2.3-1.59,2.71-1.67,0-1.11,0-2.21,0-3.32,7.42-.73,14.6-3.17,20.34-7.93.09,1.99.14,4.88-.13,8.35-.37,4.84-.56,7.25-1.85,8.94Z"/>
      <rect class="cls-7" x="12.72" y="48.81" width="40.21" height="2.91" rx="1.46" ry="1.46" transform="translate(61.7 -2.37) rotate(61.89)"/>
      <path class="cls-9" d="M49.28,63.07c.49.19,2.48.98,3.71,2.84.35.53.43.82.92,1.38,1.03,1.19,2.25,1.69,2.8,1.92.96.39,2,.58,3.29.61.97.03,1.8.03,2.78-.16,2.29-.45,3.96-2.3,6.19-2.26,1.05.94-3.86,3.39-4.48,3.61-1.44.52-2.63.81-3.85.83-1.52.02-2.78-.39-3.31-.55-1.86-.59-2.2-1.18-3.24-1.13-1.26.06-2.16,1.01-2.69,1.56-3.08,3.23-4.1,11.61-4.23,12.74-.35-.26-.76-.58-1.2-.96,0,0-.23-.2-.46-.4-8.25-7.34-6.88-13.98-6.88-13.98.06-.34.77-4.37,4.45-6.04,2.92-1.32,5.69-.23,6.2-.02Z"/>
      <path class="cls-1" d="M132.4,63.96l2.61,2.4c7.34,7.81,12.8,23.9,3.26,32.25-.93.82-2.14,1.7-3.45,1.55,3.57-12.53-.23-23.99-2.41-36.2Z"/>
      <path class="cls-1" d="M109.99,19.83c.67-3.74,3.11-6.73,6.34-7.63.53-.15,3.81-1,6.42,1,3.03,2.32,2.61,6.53,2.51,7.52-.37,3.78-2.82,6.13-3.54,6.77-.1-.02-.27-.06-.47-.13,0,0-.43-.02-.74-.28-3.45-2.93-6.03-5.55-10.51-7.26Z"/>
      <path class="cls-9" d="M55.87,89.75c0-.07,0-.17,0-.3,0-.13,0-.29,0-.35,0-.15-.04-.37-.17-.67,6.17.99,9.35.2,11.01-.53,2.85-1.26,3.67-1.7,3.67-1.7,1.08-.58,1.96-1.14,2.61-1.5.99-.55,1.21-.44,1.27-.36.23.27-.79,1.49-.97,1.7-.61.73-1.24,1.24-1.72,1.59-1,.69-2.23,1.39-3.71,1.94-5.14,1.92-9.87.83-11.99.18Z"/>
      <path class="cls-9" d="M73.44,26.72c-2.75-4.24-1.1-10.57,2.54-12.45,1.45-.75,3.53-.95,5.37-.3,1.61.57,2.59,1.64,3.13,2.23.16.17,1.42,1.64,2.06,3.62,1.26,3.89,1.01,8.62-3.31,10.31-3.71,1.45-7.68-.17-9.79-3.41Z"/>
      <path class="cls-9" d="M118.02,106.92c-.1,3.05-3.06,5.59-6.17,5.85-3.37.28-7.1-2.12-7.33-5.68-.21-3.23,2.55-5.95,5.45-6.47,3.88-.7,8.18,2.53,8.05,6.3Z"/>
      <path class="cls-4" d="M63.15,95.9c-.15,1.35-.27,2.4-.92,3.5-.9,1.51-2.31,2.21-2.94,2.52-.55.27-.96.48-1.3.57-1.43-3.81-2.13-7.93-2.13-11.98,0-.19,0-.44,0-.74h0s.06,0,.09.02c.19.02.33.08.53.14,0,0,0,0,.02,0,.08.02.15.05.23.06.11.02.24.06.43.11.02,0,.05.02.08.02.05.02.11.03.17.05.49.13,1.27.26,2.07.35.11.02.23.02.34.04.13.02.26.02.4.03.28.02.59.04.9.05.58.02,1.22,0,1.9-.05v.02c.05.43.1,1.03.13,1.75.06,1.23.11,2.33-.02,3.55Z"/>
    </g>
  </g>
</svg>