<svg xmlns="http://www.w3.org/2000/svg" width="197" height="202" fill="none" viewBox="0 0 197 202">
  <path fill="#C64A4A" d="M95.74 200.368c52.876 0 95.74-43.437 95.74-97.02s-42.864-97.02-95.74-97.02S0 49.765 0 103.348s42.864 97.02 95.74 97.02Z"/>
  <path fill="#F4E8E1" d="M96.07 184.278c44.321 0 80.25-36.408 80.25-81.32 0-44.912-35.929-81.32-80.25-81.32-44.32 0-80.25 36.408-80.25 81.32 0 44.912 35.93 81.32 80.25 81.32Z"/>
  <path fill="#C64A4A" d="M95.62 159.768c31.381 0 56.82-25.775 56.82-57.57s-25.439-57.57-56.82-57.57c-31.38 0-56.82 25.775-56.82 57.57s25.44 57.57 56.82 57.57Z"/>
  <path fill="#F4E8E1" d="M95.97 155.788c29.343 0 53.13-23.971 53.13-53.54 0-29.57-23.787-53.54-53.13-53.54-29.343 0-53.13 23.97-53.13 53.54 0 29.569 23.787 53.54 53.13 53.54Z"/>
  <path fill="#C64A4A" d="M95.71 127.818c13.597 0 24.62-11.17 24.62-24.95s-11.023-24.95-24.62-24.95c-13.597 0-24.62 11.17-24.62 24.95s11.023 24.95 24.62 24.95Z"/>
  <path fill="#A3775F" d="M45.31 45.938c1.21-4.32 2.27-7.76 4.67-11.67 1.79-2.91 4.29-6.04 5.65-7.74 1.43-1.78 2.78-3.47 4.05-4.79 5.64-5.83 13.05-7.79 18.43-9.21 5.41-1.43 9.75-1.75 11.42-1.84 4.15-.23 10.59-.52 18.18 2.09 3.21 1.1 9.11 3.19 14.49 8.6 6.1 6.12 8.2 13.14 9.7 18.18 1.18 3.96 1.6 6.95 2.09 10.56 3.64 26.97 3.59 31.69 5.77 43.12 1.42 7.46 2 8.39 3.07 15.35.93 6.07 1.68 13.08 1.84 21.01.14 6.57.2 10.48-.74 15.85-.85 4.86-1.53 8.8-3.93 13.02-4.19 7.36-10.86 10.79-15.6 13.14-7.56 3.76-13.89 4.56-22.11 5.53-6.85.81-17.36 1.96-30.83-.49-11.13-2.02-18.86-3.43-26.53-9.83-9.14-7.62-12.44-17.5-13.51-21.5-1.43-5.33-1.34-9.36-1.11-17.2.12-3.91.48-11.03 4.05-31.69 1.7-9.84.98-4.5 5.9-30.1 0 0 1.47-7.67 5.04-20.39h.01Z"/>
  <path fill="#FDFCFC" d="M123.25 23.518c.34-.05 1.26-.27 2.27.09 1.13.4 1.98 1.83 3.62 4.67 1.97 3.4 2.25 3.89 2.4 4.9.24 1.61-.08 2.98-.37 3.85-2.08.56-5.17 1.34-8.96 2.07-3.91.75-7.02 1.14-13.39 1.84-6.93.76-10.39 1.14-15.42 1.6-11.71 1.06-17.56 1.58-24.32 1.81-5.78.19-13.67.25-23.14-.33-.33-1.39-.39-2.55-.37-3.38.09-4.14 2.12-6.91 3.73-9.1.62-.85 1.29-1.62 2.35-2.08 1.23-.53 2.38-.33 2.67-.35 10.75-.71 21.61-.59 32.36-1.4 6.75-.51 29.5-3.04 36.56-4.19h.01Z"/>
  <path fill="#5F473A" d="M47.81 168.348c4.08 2.12 9.23 4.39 15.39 6.2a86.3 86.3 0 0 0 15.82 3.11l-2.83 10.86c4.13 2.2 5.87 7.46 1.41 10.31-4.76 3.04-20.49 1.8-25.96-.08-3.49-1.2-6.32-2.91-6.59-6.95-.23-3.41 1.77-10.56 2.24-14.43.36-2.98.61-6.02.53-9.02h-.01Zm84.14-1.2c.62 2.56 1.2 5.31 1.69 8.23.66 3.97 1.06 7.69 1.29 11.12 5.8-.47 9.33 6.88 3.66 10.45-7 4.41-22.58 7.69-29.65-.54-2.36-2.75-3.36-6.29-4.35-9.79a38.805 38.805 0 0 1-1.46-9.77c2.03-.17 4.44-.46 7.11-.95 4.51-.84 7.8-1.96 8.58-2.22 3.29-1.12 7.95-3.07 13.14-6.53h-.01ZM59.71 22.078c-3.22-3.32-6.03-9.65-3.5-15.29.37-.82 2.14-4.53 6.33-6.11.51-.19 3.13-1.14 6.41-.4 3.28.74 5.25 2.71 6.11 3.6 3 3.07 3.64 6.67 3.94 8.47.43 2.6.92 5.57-.78 8.45-2.19 3.71-6.45 4.61-7.58 4.85-.79.17-2.55.52-4.73.07-3.29-.68-5.33-2.73-6.2-3.62v-.02Z"/>
  <path fill="#403028" d="M106.95 12.808c1.29-5.13 4.71-9 8.81-9.77 3.26-.61 5.98.81 5.98.81s2.54 1.33 3.82 3.92c1.85 3.75.4 9.17-3.7 13.42-2.9-2.98-10.92-7.26-14.9-8.38h-.01Zm73.94 75.05c.45.3 5.52 3.82 5.56 9.95.04 7.29-7.08 10.97-8.25 11.4-.9.33-1.77.38-1.77.38-.79.03-1.47-.17-2.42-.38-2.59-2.59-2.35-5.42-1.81-8.8 1.83-.02 2.56-.54 2.87-1.04 1.52-2.49-4.73-8.77-6.5-10.5l12.31-1.01h.01Z"/>
  <path fill="tan" d="M108.33 106.368c-1.05-.09-4.14-.28-8.02.55-1.34.29-7.71 1.76-13.64 7.09-6.42 5.77-8.53 12.67-9.49 15.94-.86 2.93-4.88 16.69 3.04 29.02 1.35 2.1 4.73 7.22 11.33 10.32 10.99 5.16 21.79.46 24.32-.74 10.25-4.87 14.31-13.98 15.66-17.14 1.54-3.61 4.67-12.62 1.57-23.22-.69-2.35-3.61-12.33-13.05-18-5.42-3.25-10.76-3.76-11.73-3.84l.01.02Z"/>
  <path fill="#5F473A" d="M102.81 85.748c1.14.49 4.74 2.04 5.99 5.71 1.13 3.33-.36 6.4-.92 7.55-2.93 6.03-9.84 7.52-10.96 7.74-24.37 10.03-44.28 13.14-48.46 7.37-2.53-3.49-2.89-7.68-2.89-7.68-.05-.56-.64-5.41 1.97-8.86 3.24-4.28 8.47-4.74 19.4-6.61 7.03-1.2 13.99-2.83 20.94-4.47 6.65-1.57 10.56-2.66 14.94-.77l-.01.02Z"/>
  <path fill="#FAF9FA" d="M106.85 44.368c-3.72 1.09-5.79 3.82-6.51 4.79-.43.58-4.37 6.11-2.09 12.59.29.82 1.98 5.37 6.82 7.49 3.36 1.48 6.38.98 7.37.8.85-.15 5.73-1.1 8.78-5.65 2.65-3.95 3.14-9.46.55-13.94-3.11-5.38-9.7-7.62-14.92-6.08Z"/>
  <path fill="#402A21" d="M120.17 53.078c-1.16-1.21-2.56-1.69-2.76-1.75-.4-.13-1.76-.55-3.32-.18-3.36.79-4.62 4.48-4.72 4.79-.19.58-1.01 3.12.37 5.53 1.14 1.99 3.08 2.68 4.08 3.04.9.32 2.18.78 3.75.41 2.09-.49 3.23-2.1 3.5-2.49 1.96-2.84 1.27-7.08-.9-9.35Z"/>
  <path fill="#403028" d="M147.56 75.538c-3.12 4.06-3.81 8.92-4.64 13.9.31-.36.64-.77 1.03-1.25 1.28-1.56 1.96-2.39 2.64-3.62.96-1.74 1.37-3.3 1.72-4.97.26-1.23.52-2.49.75-3.79-.41-.67-1.08-.9-1.5-.27Z"/>
  <path fill="#805E4C" d="M149.05 62.638c-.37-1.77-.6-2.87-1.29-4.3-2.55-5.26-7.61-7.17-8.48-7.49-1.49-.55-4.08-1.52-6.94-.55a8.43 8.43 0 0 0-3.19 1.97c-1.45 1.4-2.04 2.97-2.4 3.99-2.81 8.15-2.95 15.11-2.95 15.11-.13 4.71.52 7.94 1.23 11.42.44 2.17.85 3.21 1.47 4.3.65 1.12 2.25 3.39 6.02 4.91 1.8.73 3.41.6 4.16.55.87-.06 2.45-.16 4.07-1.11.73-.43 1.32-1.02 2.16-2.01.83-4.98 1.52-9.84 4.64-13.9.42-.63 1.09-.4 1.5.27.68-3.86 1.04-8.11-.01-13.17l.01.01Z"/>
  <path fill="#403028" d="M163.77 89.648c1.66-.43 6.14-1.17 7.71-.97.19.02 2.09 1.15 3.47 1.43.13.03.43.39.93.47.86 3.43 1.08 7.31-3.05 8.35l-5.32-.2c.34 1.11 3.01 1.42 3.19 1.69.69 1.04-.87 5.72.99 7.86-1.11.47-1.13 2.15-1.4 3.26-8.59 3.11-17.25 5.81-26.55 5.12-.79-7.16-2.29-15.27-3.73-22.35 5.26.04 11.27-.76 16.4-1.99 2.49-.59 5.12-2.08 7.35-2.67h.01Z"/>
  <path fill="#231C18" d="M175.88 90.578c.12-.38.52-1.41 1.59-2.22 1.08-.81 2.2-.89 2.59-.91l1.29.81c-.47.09-1.56.37-2.58 1.31-.99.91-1.36 1.95-1.5 2.4.66 3.01-.14 5.97-2.2 7.39-.8.56-1.77.93-2.87 1.04-.55 3.37-.78 6.21 1.81 8.8a5.35 5.35 0 0 1-1.5-.27c-.39-.13-1.59-.53-2.37-1.61-.87-1.19-.75-2.55-.68-3.47.13-1.58.78-2.77 1.22-3.44-.71-.05-2.13-.25-3.59-1.2a7.572 7.572 0 0 1-2.12-2.09c-.12-.92.05-1.2.21-1.29.64-.36 1.89 1.75 4.24 2.61 1.38.51 2.68.42 3.53.28.71-.15 1.62-.49 2.37-1.25 1.54-1.57 1.77-4.32.54-6.9l.02.01Z"/>
  <path fill="#402A21" d="m119.942 44.574-19.868-2.69a1.83 1.83 0 0 0-2.06 1.568l-.043.327a1.83 1.83 0 0 0 1.567 2.058l19.869 2.69a1.83 1.83 0 0 0 2.059-1.568l.044-.327a1.83 1.83 0 0 0-1.568-2.058Zm21.348 16.274c4.28-.66 5.42 8.16-.37 6.24-2.59-.86-2.66-5.77.37-6.24Z"/>
  <path fill="#FAF9FA" d="M118.69 57.888a1.74 1.74 0 1 0 0-3.48 1.74 1.74 0 0 0 0 3.48Z"/>
  <path fill="#231C18" d="M142.74 21.758c-1.14-4.01 1.37-7.91 4.11-3.9 2.88 4.21 3.5 6.83 7.68 10.73 7.37 6.86 13.26 11.49 17.62 18.62.8 1.31 1.47 2.54 2.04 3.75 0 0 1.88 3.87 3.14 8.62 1.23 4.64 2.4 14.23 1.88 26.73l-5.97-.09c.96-5.7 2.26-18.54-4.21-32.05-2.61-5.44-5.82-9.6-8.61-12.61 0 0-9.6-5.73-16.75-17.48-.07-.11-.9-2.2-.93-2.33v.01Zm36.31 66.72c.07 8.17-.84 17.15-3.45 26.55-.5 1.79-.98 3.4-1.77 5.57-3.26 8.89-8.65 16.36-15.48 22.7-3.93 3.65-10.47 7.81-13.45 12.15-1.18 1.72-3.21 9-6.01 8.3-1.59-.87-1.88-1.95-1.73-3.68.01-.17.35-1.09.47-1.4.32-.89 1-1.54 1.4-2.33.75-1.48 1.28-2.8 2.33-4.19 3.34-4.44 8.75-8.32 12.55-12.36 3.34-3.56 5.45-6.3 9.16-12.29 8.64-13.98 9.89-31.25 10.09-38.83 1.97-.06 3.93-.13 5.9-.19h-.01Zm-65.32.88c-1.2-1.96-2.41-3.91-3.61-5.87l-11.47.18c1.16 2.19 2.31 4.38 3.47 6.57-1.21 1.83-2.42 3.66-3.62 5.5l12.25-.21c.99-2.06 1.99-4.12 2.98-6.17Z"/>
  <path fill="#231C18" d="M183.73 85.558c-.21-2.23-.42-4.45-.62-6.68 4.32 2.77 8.65 5.54 12.97 8.31-4.45 2.89-8.9 5.77-13.34 8.66l.99-7.48c-27.73.82-55.46 1.65-83.18 2.47l-.85-.85.85-.9c27.73-1.17 55.46-2.35 83.19-3.52l-.01-.01Zm-40.06-61.47a244.83 244.83 0 0 0-26.27 31.85 244.904 244.904 0 0 0-19.84 34.3c-.56-.03-1.12-.07-1.67-.1a255.09 255.09 0 0 1 19.72-34.76c9.19-13.6 18.64-24.75 27.14-33.62.03.07.06.15.93 2.33h-.01Z"/>
  <path fill="#231C18" d="M97.55 90.158c3.5 9.97 8.87 22.38 17.18 35.61 8.2 13.05 16.91 23.15 24.29 30.58-.24.35-.46.74-.73 1.12-.26.37-.51.76-.67 1.2-7.47-7.88-16.18-18.4-24.36-31.8a190.832 190.832 0 0 1-17.37-36.74c.55 0 1.11.02 1.66.02v.01Z"/>
</svg>
