<svg xmlns="http://www.w3.org/2000/svg" width="150" height="150" fill="none" viewBox="0 0 150 150">
  <path fill="#C6D2A0" d="M139.01 74.51c0 2.59-.16 5.2-.47 7.77a64.074 64.074 0 0 1-3.72 15.1c-.92 2.42-1.99 4.81-3.2 7.1a61.86 61.86 0 0 1-4.03 6.67 64.413 64.413 0 0 1-16.44 16.44 61.86 61.86 0 0 1-6.67 4.03 63.673 63.673 0 0 1-7.1 3.2 64.093 64.093 0 0 1-15.1 3.72c-2.57.31-5.18.47-7.77.47-2.6 0-5.21-.16-7.78-.47a64.44 64.44 0 0 1-7.66-1.4 64.7 64.7 0 0 1-7.44-2.32c-2.42-.92-4.81-1.99-7.1-3.2a62.85 62.85 0 0 1-6.67-4.03 64.413 64.413 0 0 1-20.47-23.11 63.673 63.673 0 0 1-3.2-7.1 64.093 64.093 0 0 1-3.72-15.1c-.31-2.57-.47-5.18-.47-7.77 0-2.6.16-5.21.47-7.78.31-2.57.78-5.14 1.4-7.66a64.7 64.7 0 0 1 2.32-7.44c.92-2.42 1.99-4.81 3.2-7.1a64.562 64.562 0 0 1 8.83-12.8 64.413 64.413 0 0 1 18.31-14.34c2.29-1.21 4.68-2.28 7.1-3.2a64.7 64.7 0 0 1 7.44-2.32 64.44 64.44 0 0 1 7.66-1.4c2.57-.31 5.18-.47 7.78-.47 2.59 0 5.2.16 7.77.47a64.074 64.074 0 0 1 15.1 3.72c2.42.92 4.81 1.99 7.1 3.2 2.3 1.2 4.54 2.56 6.67 4.03a64.413 64.413 0 0 1 20.47 23.11c1.21 2.29 2.28 4.68 3.2 7.1a64.7 64.7 0 0 1 2.32 7.44 64.44 64.44 0 0 1 1.4 7.66c.31 2.57.47 5.18.47 7.78Z"/>
  <path stroke="#846358" stroke-linecap="round" stroke-width="4" d="M139.01 74.51c0 2.59-.16 5.2-.47 7.77a64.074 64.074 0 0 1-3.72 15.1c-.92 2.42-1.99 4.81-3.2 7.1a61.86 61.86 0 0 1-4.03 6.67 64.413 64.413 0 0 1-16.44 16.44 61.86 61.86 0 0 1-6.67 4.03 63.673 63.673 0 0 1-7.1 3.2 64.093 64.093 0 0 1-15.1 3.72c-2.57.31-5.18.47-7.77.47-2.6 0-5.21-.16-7.78-.47a64.44 64.44 0 0 1-7.66-1.4 64.7 64.7 0 0 1-7.44-2.32c-2.42-.92-4.81-1.99-7.1-3.2a62.85 62.85 0 0 1-6.67-4.03 64.413 64.413 0 0 1-20.47-23.11 63.673 63.673 0 0 1-3.2-7.1 64.093 64.093 0 0 1-3.72-15.1c-.31-2.57-.47-5.18-.47-7.77 0-2.6.16-5.21.47-7.78.31-2.57.78-5.14 1.4-7.66a64.7 64.7 0 0 1 2.32-7.44c.92-2.42 1.99-4.81 3.2-7.1a64.562 64.562 0 0 1 8.83-12.8 64.413 64.413 0 0 1 18.31-14.34c2.29-1.21 4.68-2.28 7.1-3.2a64.7 64.7 0 0 1 7.44-2.32 64.44 64.44 0 0 1 7.66-1.4c2.57-.31 5.18-.47 7.78-.47 2.59 0 5.2.16 7.77.47a64.074 64.074 0 0 1 15.1 3.72c2.42.92 4.81 1.99 7.1 3.2 2.3 1.2 4.54 2.56 6.67 4.03a64.413 64.413 0 0 1 20.47 23.11c1.21 2.29 2.28 4.68 3.2 7.1a64.7 64.7 0 0 1 2.32 7.44 64.44 64.44 0 0 1 1.4 7.66c.31 2.57.47 5.18.47 7.78Z"/>
  <path fill="#E8F3C5" d="M43.518 39h56.31v69.383h-56.31m0-69.383h56.31Zm0 0h56.31Zm56.31 0v69.383Zm0 0v69.383Zm0 69.383h-56.31Zm0 0h-56.31Zm-56.31 0V39Zm0 0V39Z"/>
  <path stroke="#846358" stroke-linecap="round" stroke-width="4" d="M43.518 39h56.31m-56.31 0h56.31m-56.31 0v69.383m0-69.383v69.383M99.828 39v69.383m0-69.383v69.383m0 0h-56.31m56.31 0h-56.31"/>
  <path fill="#C6D2A0" d="M100.074 61.412h14.51v25.44h-14.51"/>
  <path stroke="#846358" stroke-linecap="round" stroke-width="4" d="M100.074 61.412h14.51m-14.51 0h14.51m-14.51 0v25.44m0-25.44v25.44m14.51-25.44v25.44m0-25.44v25.44m0 0h-14.51m14.51 0h-14.51"/>
</svg>
